<svg width="42" height="42" viewBox="0 0 42 42" fill="none" xmlns="http://www.w3.org/2000/svg">
<path d="M12.25 30.802C10.325 30.802 8.7675 32.3395 8.7675 34.2187C8.7675 36.0979 10.325 37.6354 12.25 37.6354C14.175 37.6354 15.75 36.0979 15.75 34.2187C15.75 32.3395 14.175 30.802 12.25 30.802ZM1.75 3.46871V6.88538H5.25L11.55 19.8516L9.1875 24.037C8.9075 24.5154 8.75 25.0791 8.75 25.677C8.75 27.5562 10.325 29.0937 12.25 29.0937H33.25V25.677H12.985C12.74 25.677 12.5475 25.4891 12.5475 25.25L12.6 25.045L14.175 22.2604H27.2125C28.525 22.2604 29.68 21.56 30.275 20.5008L36.54 9.41371C36.68 9.17454 36.75 8.88413 36.75 8.59371C36.75 7.65413 35.9625 6.88538 35 6.88538H9.1175L7.4725 3.46871H1.75ZM29.75 30.802C27.825 30.802 26.2675 32.3395 26.2675 34.2187C26.2675 36.0979 27.825 37.6354 29.75 37.6354C31.675 37.6354 33.25 36.0979 33.25 34.2187C33.25 32.3395 31.675 30.802 29.75 30.802Z" fill="#313131"/>
</svg>
