<svg width="1077" height="1517" viewBox="0 0 1077 1517" fill="none" xmlns="http://www.w3.org/2000/svg">
<rect width="1077" height="1517" fill="white"/>
<g clip-path="url(#clip0)">
<path d="M729.617 806.376H357.623V857.399H729.617V806.376Z" fill="#263238"/>
<path d="M730.265 858.048H356.975V805.728H730.049V858.048H730.265ZM358.272 856.751H728.968V806.809H358.272V856.751Z" fill="#263238"/>
<path d="M392.207 840.536L445.596 1104.51H643.805L695.465 857.399L392.207 840.536Z" fill="#263238"/>
<path d="M392.207 1079.65L420.738 1119H661.313L695.465 1079.65H392.207Z" fill="#455A64"/>
<path d="M529.678 848.103C529.03 848.103 527.949 725.734 527.516 574.827C527.084 423.921 527.3 301.552 528.165 301.552C528.813 301.552 529.894 423.921 530.326 574.827C530.543 725.734 530.326 848.103 529.678 848.103Z" fill="#263238"/>
<path d="M612.463 541.965C612.463 541.965 612.247 543.046 611.383 544.776C610.518 546.938 609.437 549.532 608.14 552.775C607.492 554.505 606.627 556.451 605.763 558.396C604.898 560.558 604.25 562.937 603.385 565.315C602.521 567.909 601.44 570.504 600.575 573.314C599.494 576.125 598.846 579.151 597.765 582.394C593.658 595.15 590.416 610.717 587.39 628.012C584.58 645.308 582.635 664.766 581.554 684.873C579.825 725.518 581.986 762.272 584.58 788.864C585.877 802.052 586.958 812.862 587.822 820.213C588.255 823.672 588.471 826.483 588.687 828.861C588.903 830.807 588.903 831.888 588.903 831.888C588.903 831.888 588.687 830.807 588.255 828.861C587.822 826.699 587.39 823.889 586.742 820.429C585.445 813.079 584.148 802.269 582.635 789.081C579.609 762.488 577.015 725.518 578.96 684.656C580.041 664.334 582.202 644.876 585.012 627.364C588.255 610.068 591.713 594.285 596.036 581.746C597.117 578.503 597.981 575.476 599.062 572.666C600.143 569.855 601.224 567.261 602.088 564.666C602.953 562.288 604.034 559.91 604.682 557.748C605.547 555.586 606.627 553.856 607.276 552.127C608.789 548.884 610.086 546.505 611.166 544.343C611.815 542.83 612.463 541.965 612.463 541.965Z" fill="#263238"/>
<path d="M602.953 442.946C602.953 442.946 602.52 444.46 601.872 447.054C601.007 449.865 599.71 453.756 597.981 458.513C597.117 461.107 596.252 463.701 595.171 466.728C594.307 469.755 593.226 472.998 592.145 476.673C589.984 483.808 587.39 491.807 585.228 500.888C583.931 505.428 582.851 510.184 581.554 514.94C580.473 519.913 579.176 525.102 578.095 530.507C575.502 541.1 573.556 552.775 571.179 564.882C567.072 589.097 563.397 616.121 561.02 644.444C558.642 672.766 557.561 700.007 557.345 724.653C557.345 749.3 557.561 771.568 558.642 790.162C559.074 799.458 559.507 807.89 560.155 815.241C560.587 822.591 561.02 829.077 561.452 834.266C561.884 839.239 562.1 843.346 562.317 846.157C562.533 848.968 562.533 850.265 562.533 850.265C562.533 850.265 562.317 848.751 561.884 846.157C561.452 843.13 561.02 839.239 560.371 834.266C559.723 829.077 559.074 822.808 558.642 815.241C557.994 807.89 557.345 799.458 556.913 790.162C555.616 771.568 555.184 749.3 555.184 724.437C555.4 699.79 556.264 672.549 558.642 644.011C561.236 615.689 564.91 588.664 569.017 564.234C571.395 552.127 573.34 540.452 576.15 529.858C577.447 524.453 578.528 519.264 579.825 514.292C581.122 509.319 582.418 504.563 583.715 500.239C586.093 491.159 588.687 483.159 591.064 476.025C592.145 472.565 593.226 469.322 594.307 466.296C595.387 463.269 596.468 460.675 597.333 458.08C599.062 453.324 600.575 449.648 601.656 446.838C602.304 444.243 602.953 442.946 602.953 442.946Z" fill="#263238"/>
<path d="M506.117 869.939C506.117 869.939 505.901 869.506 505.901 868.425C505.901 867.344 505.685 866.047 505.469 864.318C505.253 860.426 504.82 855.021 504.388 848.103C503.524 833.834 502.227 813.511 500.714 788.432C497.471 738.058 492.716 668.658 484.286 592.123C479.963 553.856 474.992 517.535 469.804 484.673C466.994 468.241 464.617 452.675 461.59 437.974C458.997 423.488 456.187 409.868 453.593 397.544C451.215 385.221 448.405 374.195 446.244 364.25C444.082 354.521 441.921 346.089 440.192 339.171C438.462 332.469 437.166 327.28 436.301 323.388C435.869 321.659 435.653 320.361 435.436 319.28C435.22 318.416 435.22 317.767 435.22 317.767C435.22 317.767 435.436 318.199 435.653 319.064C435.869 320.145 436.301 321.442 436.949 323.172C438.03 326.847 439.543 332.252 441.272 338.738C443.218 345.441 445.379 353.872 447.757 363.601C450.135 373.33 452.944 384.356 455.538 396.68C458.348 409.003 461.158 422.407 463.968 437.109C466.994 451.594 469.588 467.377 472.398 483.808C477.802 516.67 482.773 552.991 487.096 591.259C495.526 667.793 499.849 737.409 502.659 787.783C503.956 812.862 505.037 833.401 505.469 847.454C505.685 854.373 505.901 859.777 506.117 863.669C506.117 865.399 506.117 866.696 506.117 867.993C506.117 869.29 506.117 869.939 506.117 869.939Z" fill="#263238"/>
<path d="M526.652 360.358C525.139 343.062 507.415 329.874 490.123 329.658C472.615 329.442 456.403 339.819 445.812 353.656C435.221 367.493 429.385 384.356 424.413 401.004C412.741 441.865 406.257 484.673 411.228 527.048C416.2 569.206 433.275 610.717 463.536 640.552C468.508 645.308 474.776 650.281 481.693 648.768C485.368 647.903 488.394 645.308 491.204 642.93C550.645 589.097 585.013 508.671 582.635 428.677C582.203 412.678 580.041 396.031 571.179 382.627C562.317 369.222 541.783 354.953 526.652 360.358Z" fill="#FC7B03"/>
<path d="M396.53 221.559C388.316 236.26 380.103 251.178 372.105 265.879C371.457 266.96 370.808 268.041 369.511 268.258C368.214 268.258 367.35 267.177 366.485 266.096C344.87 233.017 323.255 199.723 301.64 166.644L316.554 158.212L396.53 221.559Z" fill="#DD6A0B"/>
<g opacity="0.2">
<g opacity="0.2">
<g opacity="0.2">
<g opacity="0.2">
<g opacity="0.2">
<path opacity="0.2" d="M396.53 221.559C388.316 236.26 380.103 251.178 372.105 265.879C371.457 266.96 370.808 268.041 369.511 268.258C368.214 268.258 367.35 267.177 366.485 266.096C344.87 233.017 323.255 199.723 301.64 166.644L316.554 158.212L396.53 221.559Z" fill="#FC7B03"/>
</g>
</g>
</g>
</g>
</g>
<path d="M528.165 301.552C454.458 258.096 380.751 214.64 307.044 170.968C304.882 169.671 302.288 168.157 301.64 165.563C300.775 162.32 303.153 159.077 305.531 156.699C336.008 125.35 380.102 107.189 423.765 110.432C467.427 113.675 509.144 138.754 530.543 176.805C551.941 214.856 552.59 265.447 528.165 301.552Z" fill="#FC7B03"/>
<path d="M338.818 129.458C338.818 129.458 339.899 129.242 341.628 129.025C343.573 129.025 346.383 128.593 350.058 128.593C357.407 128.377 367.782 128.809 380.751 130.971C393.504 133.133 408.634 137.241 424.413 144.159C440.192 151.078 456.403 161.239 471.318 174.643C486.016 188.048 497.688 203.398 506.334 218.316C514.98 233.233 520.6 247.935 523.842 260.474C527.301 273.014 528.814 283.608 529.246 290.742C529.678 294.418 529.462 295.282 529.678 297.228C529.678 299.174 528.165 301.985 527.949 301.985C527.733 301.985 529.246 298.093 528.381 290.742C527.517 283.608 525.788 273.23 522.113 260.907C515.196 236.26 498.985 202.965 469.589 176.589C440.192 150.213 405.608 137.457 380.535 132.917C367.782 130.539 357.407 129.89 350.274 129.674C342.925 129.458 338.818 129.674 338.818 129.458Z" fill="#263238"/>
<path d="M498.12 211.397C498.336 211.83 494.013 213.775 486.88 216.586C479.747 219.397 470.021 222.856 458.997 226.315C447.973 229.774 437.814 232.585 430.465 234.314C423.116 236.044 418.577 236.909 418.361 236.693C418.361 236.26 422.684 234.747 429.817 232.585C438.03 229.99 447.541 226.964 457.916 223.721C468.291 220.261 477.802 217.235 486.016 214.64C493.581 212.478 498.12 211.181 498.12 211.397Z" fill="#263238"/>
<path d="M463.32 117.999C463.969 117.999 465.698 129.025 465.914 142.646C466.346 156.267 465.266 167.509 464.617 167.509C463.969 167.509 463.753 156.483 463.32 142.862C462.888 129.025 462.672 117.999 463.32 117.999Z" fill="#263238"/>
<path d="M305.099 168.59C305.099 168.157 311.151 165.995 321.094 162.969C331.037 159.942 345.086 156.05 360.649 152.159C376.212 148.483 390.478 145.457 400.853 143.727C411.228 141.997 417.713 141.133 417.713 141.349C417.713 141.781 411.444 143.078 401.285 145.457C391.126 147.835 376.86 150.862 361.298 154.753C345.735 158.429 331.685 162.104 321.526 164.698C311.367 167.293 305.099 169.022 305.099 168.59Z" fill="#263238"/>
<path d="M434.788 322.74C415.767 308.254 395.665 305.444 371.889 306.525C348.112 307.39 324.768 314.74 302.937 324.253C265.759 340.684 230.527 364.682 208.263 398.625C186 432.785 178.218 477.97 195.078 515.157C196.807 518.832 198.969 522.724 202.643 524.237C206.534 525.967 211.073 524.669 215.18 523.372C257.545 509.535 300.343 495.483 339.25 473.863C378.157 452.243 413.822 421.975 434.572 382.627C439.543 373.114 443.866 362.953 444.515 352.359C445.379 341.765 442.353 330.307 434.788 322.74Z" fill="#FC7B03"/>
<path d="M435.22 318.416C435.22 318.416 434.14 318.848 432.194 319.713C429.817 320.578 427.007 321.443 423.332 322.74C421.387 323.388 419.225 324.037 416.848 324.902C414.47 325.767 412.092 326.848 409.282 327.929C403.879 330.09 397.61 332.252 391.126 335.495C387.884 337.009 384.425 338.522 380.751 340.252C377.076 341.981 373.618 343.927 369.727 345.873C361.946 349.548 354.164 354.521 345.951 359.277C329.739 369.655 312.447 381.978 295.804 396.464C279.16 411.165 264.678 426.731 252.574 441.433C246.738 449 240.902 456.134 236.146 463.269C233.769 466.728 231.175 470.187 229.23 473.43C227.068 476.89 225.123 480.132 223.177 483.159C219.287 489.213 216.261 495.266 213.451 500.239C212.154 502.833 210.641 505.212 209.56 507.374C208.479 509.536 207.615 511.698 206.534 513.427C204.805 516.886 203.508 519.697 202.427 521.859C201.346 523.805 200.914 524.669 200.914 524.669C200.914 524.669 201.13 523.588 201.995 521.643C202.859 519.481 204.156 516.454 205.669 512.995C206.534 511.049 207.399 509.103 208.479 506.725C209.56 504.563 210.857 502.185 212.154 499.59C214.964 494.402 217.774 488.564 221.664 482.294C223.61 479.051 225.555 475.809 227.5 472.349C229.662 468.89 232.04 465.647 234.417 461.972C239.173 454.837 244.792 447.486 250.629 439.92C262.949 425.002 277.431 409.219 294.075 394.302C310.934 379.6 328.226 367.277 344.654 356.899C353.084 351.927 360.865 347.17 368.646 343.495C372.537 341.549 376.212 339.603 379.886 337.874C383.561 336.36 387.019 334.631 390.477 333.333C397.178 330.307 403.446 328.145 408.85 326.199C411.66 325.118 414.038 324.253 416.415 323.388C418.793 322.74 420.955 322.091 422.9 321.443C426.574 320.362 429.601 319.497 431.978 318.848C434.14 318.416 435.22 318.2 435.22 318.416Z" fill="#263238"/>
<path d="M286.725 398.842C286.941 399.49 266.191 406.192 240.469 413.759C214.747 421.326 193.565 426.731 193.565 426.083C193.349 425.434 214.099 418.732 239.821 411.165C265.326 403.598 286.509 397.977 286.725 398.842Z" fill="#263238"/>
<path d="M284.78 500.888C284.348 500.888 283.916 495.483 283.7 486.402C283.484 477.538 283.484 465.215 283.7 451.594C284.132 437.974 284.78 425.65 285.645 416.786C286.294 407.922 287.158 402.517 287.374 402.517C287.807 402.517 287.59 408.138 287.374 417.002C287.158 426.731 286.726 438.622 286.294 451.81C285.861 464.999 285.645 476.889 285.429 486.618C285.429 495.266 285.213 500.888 284.78 500.888Z" fill="#263238"/>
<path d="M372.105 456.351C371.457 456.351 369.079 431.272 366.917 400.355C364.756 369.439 363.675 344.36 364.324 344.36C364.972 344.36 367.35 369.439 369.511 400.355C371.673 431.055 372.97 456.351 372.105 456.351Z" fill="#263238"/>
<path d="M263.381 341.981C263.381 341.549 269.001 341.549 278.296 341.549C287.374 341.549 300.127 341.981 313.96 342.414C327.794 342.846 340.547 343.495 349.625 343.927C358.703 344.576 364.323 345.008 364.323 345.441C364.323 345.873 358.703 345.873 349.625 345.873C340.547 345.873 327.794 345.441 313.96 345.008C299.911 344.576 287.374 343.927 278.296 343.495C269.001 342.846 263.381 342.198 263.381 341.981Z" fill="#263238"/>
<path d="M473.262 646.389C473.262 646.389 473.046 645.308 473.046 643.363C473.046 641.201 472.83 638.39 472.614 634.931C472.182 627.58 472.182 616.77 472.398 603.582C472.614 590.394 473.479 574.611 475.208 557.099C476.937 539.587 479.315 520.562 482.989 500.671C486.664 480.781 490.987 461.972 495.526 445.108C500.281 428.245 504.82 413.111 509.359 400.571C513.682 388.032 517.573 378.087 520.599 371.168C521.896 367.925 522.977 365.331 524.058 363.385C524.922 361.655 525.355 360.574 525.355 360.791C525.355 360.791 525.138 361.872 524.49 363.601C523.625 365.763 522.761 368.358 521.68 371.601C519.086 378.519 515.412 388.68 511.305 401.22C507.198 413.759 502.659 428.893 498.12 445.757C493.797 462.62 489.474 481.43 485.799 501.104C482.341 520.994 479.747 540.019 477.802 557.315C476.072 574.611 474.992 590.394 474.559 603.582C474.127 616.77 473.911 627.364 473.911 634.931C473.911 638.39 473.911 641.201 473.695 643.363C473.479 645.525 473.262 646.389 473.262 646.389Z" fill="#263238"/>
<path d="M484.935 501.752C485.151 501.968 481.909 505.644 476.073 511.481C470.453 517.102 462.239 524.886 452.945 532.885C443.65 541.1 435.004 548.019 428.52 552.991C422.035 557.964 417.928 560.775 417.712 560.558C417.496 560.342 421.171 556.883 427.223 551.694C433.923 545.857 442.137 538.722 450.999 530.939C459.861 523.156 467.859 516.021 474.56 509.968C480.828 504.779 484.719 501.536 484.935 501.752Z" fill="#263238"/>
<path d="M554.968 558.18C554.751 558.396 551.077 553.424 545.673 545.208C539.621 536.344 532.056 525.534 523.842 513.211C515.412 501.32 507.631 490.294 501.579 481.646C495.743 473.646 492.284 468.458 492.716 468.241C492.933 468.025 497.039 472.565 503.092 480.349C509.144 488.132 517.358 499.158 526.004 511.481C534.65 523.804 541.999 535.479 547.186 543.911C552.158 552.559 555.184 557.964 554.968 558.18Z" fill="#263238"/>
<path d="M518.222 380.681C518.654 381.33 495.31 396.896 466.346 415.705C437.166 434.298 413.389 449 412.957 448.351C412.525 447.703 435.869 432.136 464.833 413.327C494.013 394.734 517.79 380.032 518.222 380.681Z" fill="#263238"/>
<path d="M583.715 451.594C583.283 452.027 567.504 437.541 548.483 419.164C529.462 400.787 514.764 385.221 515.196 384.789C515.628 384.356 531.407 398.842 550.428 417.219C569.449 435.595 584.364 450.946 583.715 451.594Z" fill="#263238"/>
<path d="M600.143 450.081L620.029 448.351C634.295 447.27 647.912 442.946 660.233 436.028C666.285 432.569 672.553 429.109 679.038 426.515C703.679 416.57 731.346 418.3 757.716 417.002C801.162 414.84 843.96 403.814 883.083 385.005C885.245 383.924 887.406 382.194 888.487 380.032C892.594 372.465 885.029 365.979 878.328 361.872C844.609 341.117 810.457 320.145 772.414 309.984C734.372 299.606 690.926 301.336 658.504 323.821C620.677 350.197 606.628 404.247 600.143 450.081Z" fill="#FC7B03"/>
<path d="M889.136 377.654C889.136 377.654 887.839 377.222 885.677 376.141C883.3 374.844 880.057 373.33 876.167 371.168C867.953 366.844 856.065 360.575 841.15 353.224C826.236 346.089 808.079 338.09 787.113 332.469C766.146 326.631 741.938 323.605 717.08 326.847C692.223 330.09 669.311 339.819 653.1 354.305C636.889 368.79 626.946 386.302 619.813 401.004C612.896 415.921 608.573 428.677 605.331 437.325C603.818 441.433 602.737 444.892 601.873 447.486C601.008 449.865 600.576 450.946 600.576 450.946C600.576 450.946 600.792 449.648 601.44 447.27C602.305 444.676 603.169 441.217 604.466 437.109C607.276 428.245 611.383 415.489 618.3 400.355C625.217 385.221 635.16 367.493 651.587 352.575C668.014 337.657 691.575 327.712 716.864 324.253C742.154 321.01 766.795 324.253 787.978 330.307C809.16 336.36 827.317 344.576 842.231 351.927C857.145 359.277 868.818 365.979 876.815 370.52C880.706 372.682 883.732 374.627 886.11 375.925C888.271 377.006 889.352 377.654 889.136 377.654Z" fill="#263238"/>
<path d="M841.366 403.598C840.934 404.247 814.78 387.383 783.006 365.979C751.232 344.576 725.726 326.631 726.158 325.983C726.591 325.334 752.745 342.198 784.519 363.601C816.293 385.005 841.798 402.949 841.366 403.598Z" fill="#263238"/>
<path d="M813.483 324.469C813.699 325.118 805.269 327.064 794.462 327.928C783.87 328.793 775.008 328.361 775.008 327.712C775.008 327.064 783.654 326.631 794.246 325.766C804.837 324.902 813.267 323.821 813.483 324.469Z" fill="#263238"/>
<path d="M699.139 309.552C699.788 309.768 695.897 315.821 690.493 322.956C685.09 330.09 680.334 335.495 679.686 335.279C679.037 335.063 682.928 329.009 688.332 321.875C693.736 314.74 698.491 309.335 699.139 309.552Z" fill="#263238"/>
<path d="M722.7 418.948C722.484 419.164 717.728 416.786 710.163 412.03C702.598 407.49 692.439 400.787 681.631 392.788C670.824 384.789 661.097 377.438 654.18 372.033C647.264 366.628 643.157 362.953 643.373 362.736C643.589 362.52 648.128 365.331 655.261 370.52C663.043 376.141 672.553 383.059 683.144 390.626C693.952 398.409 703.895 405.328 711.244 410.3C718.377 415.489 722.7 418.516 722.7 418.948Z" fill="#263238"/>
<path d="M629.539 534.831C610.518 529.858 587.822 548.235 583.932 567.693C580.041 586.935 587.174 606.825 595.82 624.553C614.625 663.901 640.347 700.439 674.498 727.464C708.65 754.705 751.232 772.001 794.894 771.785C786.896 734.382 797.055 695.25 792.516 657.415C788.625 624.337 773.063 592.556 749.502 569.206C725.726 545.641 693.952 530.507 660.881 527.048C648.56 525.534 634.511 523.588 629.539 534.831Z" fill="#FC7B03"/>
<path d="M794.894 771.785C794.894 771.785 794.029 771.352 792.084 770.488C790.355 769.623 787.977 768.109 784.951 765.731C778.899 761.191 772.198 752.543 766.146 740.652C763.12 734.815 759.661 728.329 756.419 721.194C753.177 714.06 749.719 706.493 746.26 698.493C742.586 690.494 738.695 682.278 733.723 674.279C728.752 666.28 722.916 658.28 716.431 650.713C703.462 635.363 689.413 622.175 677.308 609.419C665.204 596.88 654.829 584.773 647.48 573.53C639.914 562.504 635.375 552.559 632.998 545.641C631.701 542.181 630.836 539.371 630.404 537.425C629.972 535.479 629.755 534.615 629.755 534.398C629.972 534.398 631.052 538.29 633.862 545.208C636.672 551.91 641.427 561.639 648.993 572.449C656.558 583.259 666.717 595.15 679.038 607.69C691.142 620.229 705.192 633.417 718.377 648.984C724.861 656.767 730.913 664.766 735.885 672.982C740.856 681.197 744.963 689.629 748.422 697.628C751.88 705.628 755.338 713.195 758.364 720.329C761.607 727.464 764.849 733.95 767.875 739.787C773.711 751.678 779.979 760.326 785.599 765.083C791.219 769.839 794.894 771.569 794.894 771.785Z" fill="#263238"/>
<path d="M696.329 740.868C695.897 740.868 696.545 735.896 698.058 728.112C699.571 720.329 701.949 709.519 705.191 697.845C708.434 686.17 712.108 675.576 714.918 668.225C717.728 660.658 719.89 656.334 720.106 656.334C720.538 656.551 719.025 661.091 716.647 668.874C714.27 676.441 711.027 687.035 707.785 698.709C704.543 710.384 701.733 720.978 699.788 728.761C698.058 736.112 696.762 740.868 696.329 740.868Z" fill="#263238"/>
<path d="M791.219 648.984C791.003 649.416 786.032 648.119 777.818 645.957C769.604 643.795 758.365 640.984 745.612 637.958C733.075 635.147 721.619 632.985 713.189 631.255C704.76 629.742 699.788 628.661 699.788 628.229C699.788 627.796 705.192 628.229 713.622 629.31C722.052 630.391 733.724 632.336 746.26 635.147C759.013 637.958 770.253 641.201 778.25 643.795C786.464 646.822 791.436 648.767 791.219 648.984Z" fill="#263238"/>
<path d="M625.865 675.576C625.432 675.576 626.297 669.739 628.026 660.658C629.755 651.578 632.349 639.039 636.024 625.418C639.698 611.797 643.373 599.474 646.399 590.826C649.425 582.178 651.586 576.773 651.803 576.773C652.235 576.989 650.722 582.394 648.128 591.259C645.534 600.123 642.076 612.446 638.617 626.067C635.159 639.687 632.133 652.01 629.971 661.091C627.594 670.171 626.081 675.792 625.865 675.576Z" fill="#263238"/>
<path d="M747.557 568.99C747.557 569.639 723.78 567.693 694.384 564.666C665.204 561.639 641.427 558.396 641.644 557.748C641.644 557.099 665.42 559.045 694.816 562.072C723.997 565.099 747.557 568.342 747.557 568.99Z" fill="#263238"/>
<path d="M730.049 857.183C730.049 857.832 646.615 858.48 543.512 858.48C440.408 858.48 356.975 857.832 356.975 857.183C356.975 856.535 440.408 855.886 543.512 855.886C646.615 855.886 730.049 856.535 730.049 857.183Z" fill="#455A64"/>
<path d="M672.121 964.85C672.121 965.499 615.922 966.147 546.322 966.147C476.938 966.147 420.522 965.499 420.522 964.85C420.522 964.202 476.721 963.553 546.322 963.553C615.706 963.553 672.121 963.985 672.121 964.85Z" fill="#455A64"/>
<path d="M669.743 980.2C669.743 980.849 614.409 981.497 546.321 981.497C478.018 981.497 422.9 980.849 422.9 980.2C422.9 979.552 478.234 978.903 546.321 978.903C614.625 978.903 669.743 979.335 669.743 980.2Z" fill="#455A64"/>
<path d="M674.282 952.094C674.282 952.743 616.138 953.392 544.376 953.392C472.614 953.392 414.254 952.743 414.254 952.094C414.254 951.446 472.398 950.797 544.376 950.797C615.922 950.797 674.282 951.446 674.282 952.094Z" fill="#455A64"/>
</g>
<path d="M82.4052 1282.3H101.193V1288H75.3982V1234.33H82.4052V1282.3ZM127.038 1288.69C123.085 1288.69 119.492 1287.79 116.258 1286C113.075 1284.2 110.56 1281.66 108.712 1278.38C106.915 1275.04 106.017 1271.19 106.017 1266.82C106.017 1262.51 106.941 1258.71 108.789 1255.43C110.688 1252.09 113.255 1249.55 116.489 1247.81C119.723 1246.01 123.342 1245.11 127.346 1245.11C131.35 1245.11 134.969 1246.01 138.203 1247.81C141.437 1249.55 143.978 1252.07 145.826 1255.35C147.725 1258.64 148.675 1262.46 148.675 1266.82C148.675 1271.19 147.699 1275.04 145.749 1278.38C143.849 1281.66 141.257 1284.2 137.972 1286C134.686 1287.79 131.042 1288.69 127.038 1288.69ZM127.038 1282.53C129.553 1282.53 131.914 1281.94 134.122 1280.76C136.329 1279.58 138.1 1277.81 139.435 1275.45C140.821 1273.09 141.514 1270.21 141.514 1266.82C141.514 1263.44 140.846 1260.56 139.512 1258.2C138.177 1255.84 136.432 1254.09 134.276 1252.96C132.12 1251.78 129.784 1251.19 127.269 1251.19C124.702 1251.19 122.341 1251.78 120.185 1252.96C118.08 1254.09 116.386 1255.84 115.103 1258.2C113.819 1260.56 113.178 1263.44 113.178 1266.82C113.178 1270.26 113.794 1273.16 115.026 1275.53C116.309 1277.89 118.003 1279.66 120.108 1280.84C122.212 1281.97 124.522 1282.53 127.038 1282.53ZM176.29 1288.69C172.338 1288.69 168.744 1287.79 165.51 1286C162.328 1284.2 159.812 1281.66 157.964 1278.38C156.168 1275.04 155.269 1271.19 155.269 1266.82C155.269 1262.51 156.193 1258.71 158.041 1255.43C159.941 1252.09 162.507 1249.55 165.741 1247.81C168.975 1246.01 172.594 1245.11 176.598 1245.11C180.602 1245.11 184.221 1246.01 187.455 1247.81C190.689 1249.55 193.23 1252.07 195.078 1255.35C196.978 1258.64 197.927 1262.46 197.927 1266.82C197.927 1271.19 196.952 1275.04 195.001 1278.38C193.102 1281.66 190.51 1284.2 187.224 1286C183.939 1287.79 180.294 1288.69 176.29 1288.69ZM176.29 1282.53C178.806 1282.53 181.167 1281.94 183.374 1280.76C185.582 1279.58 187.353 1277.81 188.687 1275.45C190.073 1273.09 190.766 1270.21 190.766 1266.82C190.766 1263.44 190.099 1260.56 188.764 1258.2C187.43 1255.84 185.684 1254.09 183.528 1252.96C181.372 1251.78 179.037 1251.19 176.521 1251.19C173.955 1251.19 171.593 1251.78 169.437 1252.96C167.333 1254.09 165.639 1255.84 164.355 1258.2C163.072 1260.56 162.43 1263.44 162.43 1266.82C162.43 1270.26 163.046 1273.16 164.278 1275.53C165.562 1277.89 167.256 1279.66 169.36 1280.84C171.465 1281.97 173.775 1282.53 176.29 1282.53ZM230.702 1288L214.147 1269.37V1288H207.14V1231.02H214.147V1264.51L230.394 1245.8H240.173L220.307 1266.82L240.25 1288H230.702ZM261.706 1288.69C258.472 1288.69 255.572 1288.15 253.005 1287.08C250.439 1285.95 248.411 1284.41 246.922 1282.46C245.434 1280.45 244.612 1278.17 244.458 1275.6H251.696C251.902 1277.71 252.877 1279.43 254.622 1280.76C256.419 1282.1 258.755 1282.76 261.629 1282.76C264.299 1282.76 266.403 1282.17 267.943 1280.99C269.483 1279.81 270.253 1278.32 270.253 1276.53C270.253 1274.68 269.432 1273.32 267.789 1272.45C266.147 1271.52 263.606 1270.62 260.166 1269.75C257.035 1268.93 254.468 1268.11 252.466 1267.29C250.516 1266.41 248.822 1265.16 247.384 1263.51C245.998 1261.82 245.305 1259.61 245.305 1256.89C245.305 1254.74 245.947 1252.76 247.23 1250.96C248.514 1249.17 250.336 1247.75 252.697 1246.73C255.059 1245.65 257.754 1245.11 260.782 1245.11C265.454 1245.11 269.227 1246.29 272.101 1248.65C274.976 1251.01 276.516 1254.25 276.721 1258.35H269.714C269.56 1256.15 268.662 1254.38 267.019 1253.04C265.428 1251.71 263.272 1251.04 260.551 1251.04C258.036 1251.04 256.034 1251.58 254.545 1252.66C253.057 1253.73 252.312 1255.15 252.312 1256.89C252.312 1258.28 252.749 1259.43 253.621 1260.36C254.545 1261.23 255.675 1261.95 257.009 1262.51C258.395 1263.03 260.295 1263.62 262.707 1264.28C265.736 1265.11 268.2 1265.93 270.099 1266.75C271.999 1267.52 273.616 1268.7 274.95 1270.29C276.336 1271.88 277.055 1273.96 277.106 1276.53C277.106 1278.84 276.465 1280.92 275.181 1282.76C273.898 1284.61 272.076 1286.07 269.714 1287.15C267.404 1288.18 264.735 1288.69 261.706 1288.69ZM314.533 1231.02V1288H307.526V1231.02H314.533ZM330.094 1238.95C328.76 1238.95 327.63 1238.49 326.706 1237.56C325.782 1236.64 325.32 1235.51 325.32 1234.18C325.32 1232.84 325.782 1231.71 326.706 1230.79C327.63 1229.86 328.76 1229.4 330.094 1229.4C331.378 1229.4 332.456 1229.86 333.328 1230.79C334.252 1231.71 334.714 1232.84 334.714 1234.18C334.714 1235.51 334.252 1236.64 333.328 1237.56C332.456 1238.49 331.378 1238.95 330.094 1238.95ZM333.482 1245.8V1288H326.475V1245.8H333.482ZM368.987 1288L352.432 1269.37V1288H345.425V1231.02H352.432V1264.51L368.679 1245.8H378.458L358.592 1266.82L378.535 1288H368.987ZM423.553 1265.28C423.553 1266.62 423.476 1268.03 423.322 1269.52H389.596C389.852 1273.68 391.264 1276.94 393.831 1279.3C396.449 1281.61 399.606 1282.76 403.302 1282.76C406.33 1282.76 408.846 1282.07 410.848 1280.68C412.901 1279.25 414.338 1277.35 415.16 1274.99H422.706C421.576 1279.04 419.318 1282.35 415.93 1284.92C412.542 1287.44 408.332 1288.69 403.302 1288.69C399.298 1288.69 395.704 1287.79 392.522 1286C389.39 1284.2 386.926 1281.66 385.13 1278.38C383.333 1275.04 382.435 1271.19 382.435 1266.82C382.435 1262.46 383.307 1258.64 385.053 1255.35C386.798 1252.07 389.236 1249.55 392.368 1247.81C395.55 1246.01 399.195 1245.11 403.302 1245.11C407.306 1245.11 410.848 1245.98 413.928 1247.73C417.008 1249.47 419.369 1251.89 421.012 1254.97C422.706 1258 423.553 1261.43 423.553 1265.28ZM416.315 1263.82C416.315 1261.15 415.724 1258.87 414.544 1256.97C413.363 1255.02 411.746 1253.56 409.693 1252.58C407.691 1251.55 405.458 1251.04 402.994 1251.04C399.452 1251.04 396.423 1252.17 393.908 1254.43C391.444 1256.69 390.032 1259.82 389.673 1263.82H416.315ZM509.54 1245.8L496.373 1288H489.135L478.971 1254.5L468.807 1288H461.569L448.325 1245.8H455.486L465.188 1281.22L475.66 1245.8H482.821L493.062 1281.3L502.61 1245.8H509.54ZM554.994 1265.28C554.994 1266.62 554.917 1268.03 554.763 1269.52H521.037C521.294 1273.68 522.705 1276.94 525.272 1279.3C527.89 1281.61 531.047 1282.76 534.743 1282.76C537.772 1282.76 540.287 1282.07 542.289 1280.68C544.342 1279.25 545.78 1277.35 546.601 1274.99H554.147C553.018 1279.04 550.759 1282.35 547.371 1284.92C543.983 1287.44 539.774 1288.69 534.743 1288.69C530.739 1288.69 527.146 1287.79 523.963 1286C520.832 1284.2 518.368 1281.66 516.571 1278.38C514.774 1275.04 513.876 1271.19 513.876 1266.82C513.876 1262.46 514.749 1258.64 516.494 1255.35C518.239 1252.07 520.678 1249.55 523.809 1247.81C526.992 1246.01 530.636 1245.11 534.743 1245.11C538.747 1245.11 542.289 1245.98 545.369 1247.73C548.449 1249.47 550.81 1251.89 552.453 1254.97C554.147 1258 554.994 1261.43 554.994 1265.28ZM547.756 1263.82C547.756 1261.15 547.166 1258.87 545.985 1256.97C544.804 1255.02 543.187 1253.56 541.134 1252.58C539.132 1251.55 536.899 1251.04 534.435 1251.04C530.893 1251.04 527.864 1252.17 525.349 1254.43C522.885 1256.69 521.473 1259.82 521.114 1263.82H547.756ZM582.153 1266.75C582.153 1262.44 583.026 1258.66 584.771 1255.43C586.517 1252.14 588.904 1249.6 591.932 1247.81C595.012 1246.01 598.452 1245.11 602.25 1245.11C605.536 1245.11 608.59 1245.88 611.413 1247.42C614.237 1248.91 616.393 1250.89 617.881 1253.35V1231.02H624.965V1288H617.881V1280.07C616.495 1282.58 614.442 1284.66 611.721 1286.31C609.001 1287.9 605.818 1288.69 602.173 1288.69C598.426 1288.69 595.012 1287.77 591.932 1285.92C588.904 1284.07 586.517 1281.48 584.771 1278.14C583.026 1274.81 582.153 1271.01 582.153 1266.75ZM617.881 1266.82C617.881 1263.64 617.24 1260.87 615.956 1258.51C614.673 1256.15 612.928 1254.35 610.72 1253.12C608.564 1251.84 606.177 1251.19 603.559 1251.19C600.941 1251.19 598.554 1251.81 596.398 1253.04C594.242 1254.27 592.523 1256.07 591.239 1258.43C589.956 1260.79 589.314 1263.57 589.314 1266.75C589.314 1269.98 589.956 1272.81 591.239 1275.22C592.523 1277.58 594.242 1279.4 596.398 1280.68C598.554 1281.92 600.941 1282.53 603.559 1282.53C606.177 1282.53 608.564 1281.92 610.72 1280.68C612.928 1279.4 614.673 1277.58 615.956 1275.22C617.24 1272.81 617.881 1270.01 617.881 1266.82ZM655.209 1288.69C651.257 1288.69 647.663 1287.79 644.429 1286C641.247 1284.2 638.731 1281.66 636.883 1278.38C635.087 1275.04 634.188 1271.19 634.188 1266.82C634.188 1262.51 635.112 1258.71 636.96 1255.43C638.86 1252.09 641.426 1249.55 644.66 1247.81C647.894 1246.01 651.513 1245.11 655.517 1245.11C659.521 1245.11 663.14 1246.01 666.374 1247.81C669.608 1249.55 672.149 1252.07 673.997 1255.35C675.897 1258.64 676.846 1262.46 676.846 1266.82C676.846 1271.19 675.871 1275.04 673.92 1278.38C672.021 1281.66 669.429 1284.2 666.143 1286C662.858 1287.79 659.213 1288.69 655.209 1288.69ZM655.209 1282.53C657.725 1282.53 660.086 1281.94 662.293 1280.76C664.501 1279.58 666.272 1277.81 667.606 1275.45C668.992 1273.09 669.685 1270.21 669.685 1266.82C669.685 1263.44 669.018 1260.56 667.683 1258.2C666.349 1255.84 664.603 1254.09 662.447 1252.96C660.291 1251.78 657.956 1251.19 655.44 1251.19C652.874 1251.19 650.512 1251.78 648.356 1252.96C646.252 1254.09 644.558 1255.84 643.274 1258.2C641.991 1260.56 641.349 1263.44 641.349 1266.82C641.349 1270.26 641.965 1273.16 643.197 1275.53C644.481 1277.89 646.175 1279.66 648.279 1280.84C650.384 1281.97 652.694 1282.53 655.209 1282.53ZM706.618 1245.03C711.752 1245.03 715.91 1246.6 719.092 1249.73C722.275 1252.81 723.866 1257.28 723.866 1263.13V1288H716.936V1264.13C716.936 1259.92 715.884 1256.71 713.779 1254.5C711.675 1252.25 708.8 1251.12 705.155 1251.12C701.459 1251.12 698.508 1252.27 696.3 1254.58C694.144 1256.89 693.066 1260.25 693.066 1264.67V1288H686.059V1245.8H693.066V1251.81C694.452 1249.65 696.326 1247.99 698.687 1246.8C701.1 1245.62 703.744 1245.03 706.618 1245.03ZM736.39 1234.33H744.167L736.775 1251.81H731.847L736.39 1234.33ZM760.703 1251.58V1276.45C760.703 1278.5 761.139 1279.97 762.012 1280.84C762.885 1281.66 764.399 1282.07 766.555 1282.07H771.714V1288H765.4C761.499 1288 758.573 1287.1 756.622 1285.3C754.671 1283.51 753.696 1280.56 753.696 1276.45V1251.58H748.229V1245.8H753.696V1235.18H760.703V1245.8H771.714V1251.58H760.703ZM821.676 1245.03C824.859 1245.03 827.734 1245.73 830.3 1247.11C832.867 1248.45 834.869 1250.48 836.306 1253.2C837.795 1255.92 838.539 1259.23 838.539 1263.13V1288H831.609V1264.13C831.609 1259.92 830.557 1256.71 828.452 1254.5C826.348 1252.25 823.473 1251.12 819.828 1251.12C816.132 1251.12 813.181 1252.27 810.973 1254.58C808.817 1256.89 807.739 1260.25 807.739 1264.67V1288H800.732V1231.02H807.739V1251.81C809.125 1249.65 811.025 1247.99 813.437 1246.8C815.901 1245.62 818.648 1245.03 821.676 1245.03ZM847.367 1266.75C847.367 1262.44 848.24 1258.66 849.985 1255.43C851.73 1252.14 854.117 1249.6 857.146 1247.81C860.226 1246.01 863.64 1245.11 867.387 1245.11C871.083 1245.11 874.291 1245.91 877.012 1247.5C879.733 1249.09 881.76 1251.09 883.095 1253.5V1245.8H890.179V1288H883.095V1280.15C881.709 1282.61 879.63 1284.66 876.858 1286.31C874.137 1287.9 870.955 1288.69 867.31 1288.69C863.563 1288.69 860.175 1287.77 857.146 1285.92C854.117 1284.07 851.73 1281.48 849.985 1278.14C848.24 1274.81 847.367 1271.01 847.367 1266.75ZM883.095 1266.82C883.095 1263.64 882.453 1260.87 881.17 1258.51C879.887 1256.15 878.141 1254.35 875.934 1253.12C873.778 1251.84 871.391 1251.19 868.773 1251.19C866.155 1251.19 863.768 1251.81 861.612 1253.04C859.456 1254.27 857.736 1256.07 856.453 1258.43C855.17 1260.79 854.528 1263.57 854.528 1266.75C854.528 1269.98 855.17 1272.81 856.453 1275.22C857.736 1277.58 859.456 1279.4 861.612 1280.68C863.768 1281.92 866.155 1282.53 868.773 1282.53C871.391 1282.53 873.778 1281.92 875.934 1280.68C878.141 1279.4 879.887 1277.58 881.17 1275.22C882.453 1272.81 883.095 1270.01 883.095 1266.82ZM917.728 1281.53L930.818 1245.8H938.287L921.732 1288H913.57L897.015 1245.8H904.561L917.728 1281.53ZM983.682 1265.28C983.682 1266.62 983.605 1268.03 983.451 1269.52H949.725C949.982 1273.68 951.394 1276.94 953.96 1279.3C956.578 1281.61 959.735 1282.76 963.431 1282.76C966.46 1282.76 968.975 1282.07 970.977 1280.68C973.031 1279.25 974.468 1277.35 975.289 1274.99H982.835C981.706 1279.04 979.447 1282.35 976.059 1284.92C972.671 1287.44 968.462 1288.69 963.431 1288.69C959.427 1288.69 955.834 1287.79 952.651 1286C949.52 1284.2 947.056 1281.66 945.259 1278.38C943.463 1275.04 942.564 1271.19 942.564 1266.82C942.564 1262.46 943.437 1258.64 945.182 1255.35C946.928 1252.07 949.366 1249.55 952.497 1247.81C955.68 1246.01 959.325 1245.11 963.431 1245.11C967.435 1245.11 970.977 1245.98 974.057 1247.73C977.137 1249.47 979.499 1251.89 981.141 1254.97C982.835 1258 983.682 1261.43 983.682 1265.28ZM976.444 1263.82C976.444 1261.15 975.854 1258.87 974.673 1256.97C973.493 1255.02 971.876 1253.56 969.822 1252.58C967.82 1251.55 965.587 1251.04 963.123 1251.04C959.581 1251.04 956.553 1252.17 954.037 1254.43C951.573 1256.69 950.162 1259.82 949.802 1263.82H976.444ZM137.812 1361.8L124.645 1404H117.407L107.243 1370.5L97.0789 1404H89.8409L76.5969 1361.8H83.7579L93.4599 1397.22L103.932 1361.8H111.093L121.334 1397.3L130.882 1361.8H137.812ZM165.71 1361.03C168.893 1361.03 171.767 1361.73 174.334 1363.11C176.901 1364.45 178.903 1366.48 180.34 1369.2C181.829 1371.92 182.573 1375.23 182.573 1379.13V1404H175.643V1380.13C175.643 1375.92 174.591 1372.71 172.486 1370.5C170.381 1368.25 167.507 1367.12 163.862 1367.12C160.166 1367.12 157.214 1368.27 155.007 1370.58C152.851 1372.89 151.773 1376.25 151.773 1380.67V1404H144.766V1347.02H151.773V1367.81C153.159 1365.65 155.058 1363.99 157.471 1362.8C159.935 1361.62 162.681 1361.03 165.71 1361.03ZM191.401 1382.75C191.401 1378.44 192.274 1374.66 194.019 1371.43C195.764 1368.14 198.151 1365.6 201.18 1363.81C204.26 1362.01 207.674 1361.11 211.421 1361.11C215.117 1361.11 218.325 1361.91 221.046 1363.5C223.767 1365.09 225.794 1367.09 227.129 1369.5V1361.8H234.213V1404H227.129V1396.15C225.743 1398.61 223.664 1400.66 220.892 1402.31C218.171 1403.9 214.989 1404.69 211.344 1404.69C207.597 1404.69 204.209 1403.77 201.18 1401.92C198.151 1400.07 195.764 1397.48 194.019 1394.14C192.274 1390.81 191.401 1387.01 191.401 1382.75ZM227.129 1382.82C227.129 1379.64 226.487 1376.87 225.204 1374.51C223.921 1372.15 222.175 1370.35 219.968 1369.12C217.812 1367.84 215.425 1367.19 212.807 1367.19C210.189 1367.19 207.802 1367.81 205.646 1369.04C203.49 1370.27 201.77 1372.07 200.487 1374.43C199.204 1376.79 198.562 1379.57 198.562 1382.75C198.562 1385.98 199.204 1388.81 200.487 1391.22C201.77 1393.58 203.49 1395.4 205.646 1396.68C207.802 1397.92 210.189 1398.53 212.807 1398.53C215.425 1398.53 217.812 1397.92 219.968 1396.68C222.175 1395.4 223.921 1393.58 225.204 1391.22C226.487 1388.81 227.129 1386.01 227.129 1382.82ZM254.601 1367.58V1392.45C254.601 1394.5 255.037 1395.97 255.91 1396.84C256.783 1397.66 258.297 1398.07 260.453 1398.07H265.612V1404H259.298C255.397 1404 252.471 1403.1 250.52 1401.3C248.569 1399.51 247.594 1396.56 247.594 1392.45V1367.58H242.127V1361.8H247.594V1351.18H254.601V1361.8H265.612V1367.58H254.601ZM330.974 1361.8L305.564 1423.87H298.326L306.642 1403.54L289.625 1361.8H297.402L310.646 1395.99L323.736 1361.8H330.974ZM356.421 1404.69C352.468 1404.69 348.875 1403.79 345.641 1402C342.458 1400.2 339.943 1397.66 338.095 1394.38C336.298 1391.04 335.4 1387.19 335.4 1382.82C335.4 1378.51 336.324 1374.71 338.172 1371.43C340.071 1368.09 342.638 1365.55 345.872 1363.81C349.106 1362.01 352.725 1361.11 356.729 1361.11C360.733 1361.11 364.352 1362.01 367.586 1363.81C370.82 1365.55 373.361 1368.07 375.209 1371.35C377.108 1374.64 378.058 1378.46 378.058 1382.82C378.058 1387.19 377.083 1391.04 375.132 1394.38C373.233 1397.66 370.64 1400.2 367.355 1402C364.07 1403.79 360.425 1404.69 356.421 1404.69ZM356.421 1398.53C358.936 1398.53 361.298 1397.94 363.505 1396.76C365.712 1395.58 367.483 1393.81 368.818 1391.45C370.204 1389.09 370.897 1386.21 370.897 1382.82C370.897 1379.44 370.23 1376.56 368.895 1374.2C367.56 1371.84 365.815 1370.09 363.659 1368.96C361.503 1367.78 359.167 1367.19 356.652 1367.19C354.085 1367.19 351.724 1367.78 349.568 1368.96C347.463 1370.09 345.769 1371.84 344.486 1374.2C343.203 1376.56 342.561 1379.44 342.561 1382.82C342.561 1386.26 343.177 1389.16 344.409 1391.53C345.692 1393.89 347.386 1395.66 349.491 1396.84C351.596 1397.97 353.906 1398.53 356.421 1398.53ZM424.693 1361.8V1404H417.686V1397.76C416.351 1399.92 414.477 1401.61 412.065 1402.84C409.703 1404.03 407.085 1404.62 404.211 1404.62C400.925 1404.62 397.974 1403.95 395.356 1402.61C392.738 1401.23 390.659 1399.17 389.119 1396.45C387.63 1393.73 386.886 1390.42 386.886 1386.52V1361.8H393.816V1385.6C393.816 1389.75 394.868 1392.96 396.973 1395.22C399.077 1397.43 401.952 1398.53 405.597 1398.53C409.344 1398.53 412.296 1397.38 414.452 1395.07C416.608 1392.76 417.686 1389.4 417.686 1384.98V1361.8H424.693ZM454.434 1382.75C454.434 1378.44 455.307 1374.66 457.052 1371.43C458.797 1368.14 461.184 1365.6 464.213 1363.81C467.293 1362.01 470.707 1361.11 474.454 1361.11C478.15 1361.11 481.358 1361.91 484.079 1363.5C486.8 1365.09 488.827 1367.09 490.162 1369.5V1361.8H497.246V1404H490.162V1396.15C488.776 1398.61 486.697 1400.66 483.925 1402.31C481.204 1403.9 478.022 1404.69 474.377 1404.69C470.63 1404.69 467.242 1403.77 464.213 1401.92C461.184 1400.07 458.797 1397.48 457.052 1394.14C455.307 1390.81 454.434 1387.01 454.434 1382.75ZM490.162 1382.82C490.162 1379.64 489.52 1376.87 488.237 1374.51C486.954 1372.15 485.208 1370.35 483.001 1369.12C480.845 1367.84 478.458 1367.19 475.84 1367.19C473.222 1367.19 470.835 1367.81 468.679 1369.04C466.523 1370.27 464.803 1372.07 463.52 1374.43C462.237 1376.79 461.595 1379.57 461.595 1382.75C461.595 1385.98 462.237 1388.81 463.52 1391.22C464.803 1393.58 466.523 1395.4 468.679 1396.68C470.835 1397.92 473.222 1398.53 475.84 1398.53C478.458 1398.53 480.845 1397.92 483.001 1396.68C485.208 1395.4 486.954 1393.58 488.237 1391.22C489.52 1388.81 490.162 1386.01 490.162 1382.82ZM516.094 1368.66C517.326 1366.24 519.072 1364.37 521.33 1363.04C523.64 1361.7 526.438 1361.03 529.723 1361.03V1368.27H527.875C520.021 1368.27 516.094 1372.53 516.094 1381.05V1404H509.087V1361.8H516.094V1368.66ZM576.312 1381.28C576.312 1382.62 576.235 1384.03 576.081 1385.52H542.355C542.611 1389.68 544.023 1392.94 546.59 1395.3C549.208 1397.61 552.365 1398.76 556.061 1398.76C559.089 1398.76 561.605 1398.07 563.607 1396.68C565.66 1395.25 567.097 1393.35 567.919 1390.99H575.465C574.335 1395.04 572.077 1398.35 568.689 1400.92C565.301 1403.44 561.091 1404.69 556.061 1404.69C552.057 1404.69 548.463 1403.79 545.281 1402C542.149 1400.2 539.685 1397.66 537.889 1394.38C536.092 1391.04 535.194 1387.19 535.194 1382.82C535.194 1378.46 536.066 1374.64 537.812 1371.35C539.557 1368.07 541.995 1365.55 545.127 1363.81C548.309 1362.01 551.954 1361.11 556.061 1361.11C560.065 1361.11 563.607 1361.98 566.687 1363.73C569.767 1365.47 572.128 1367.89 573.771 1370.97C575.465 1374 576.312 1377.43 576.312 1381.28ZM569.074 1379.82C569.074 1377.15 568.483 1374.87 567.303 1372.97C566.122 1371.02 564.505 1369.56 562.452 1368.58C560.45 1367.55 558.217 1367.04 555.753 1367.04C552.211 1367.04 549.182 1368.17 546.667 1370.43C544.203 1372.69 542.791 1375.82 542.432 1379.82H569.074ZM613.096 1347.02V1404H606.089V1347.02H613.096ZM643.441 1404.69C639.489 1404.69 635.895 1403.79 632.661 1402C629.479 1400.2 626.963 1397.66 625.115 1394.38C623.319 1391.04 622.42 1387.19 622.42 1382.82C622.42 1378.51 623.344 1374.71 625.192 1371.43C627.092 1368.09 629.658 1365.55 632.892 1363.81C636.126 1362.01 639.745 1361.11 643.749 1361.11C647.753 1361.11 651.372 1362.01 654.606 1363.81C657.84 1365.55 660.381 1368.07 662.229 1371.35C664.129 1374.64 665.078 1378.46 665.078 1382.82C665.078 1387.19 664.103 1391.04 662.152 1394.38C660.253 1397.66 657.661 1400.2 654.375 1402C651.09 1403.79 647.445 1404.69 643.441 1404.69ZM643.441 1398.53C645.957 1398.53 648.318 1397.94 650.525 1396.76C652.733 1395.58 654.504 1393.81 655.838 1391.45C657.224 1389.09 657.917 1386.21 657.917 1382.82C657.917 1379.44 657.25 1376.56 655.915 1374.2C654.581 1371.84 652.835 1370.09 650.679 1368.96C648.523 1367.78 646.188 1367.19 643.672 1367.19C641.106 1367.19 638.744 1367.78 636.588 1368.96C634.484 1370.09 632.79 1371.84 631.506 1374.2C630.223 1376.56 629.581 1379.44 629.581 1382.82C629.581 1386.26 630.197 1389.16 631.429 1391.53C632.713 1393.89 634.407 1395.66 636.511 1396.84C638.616 1397.97 640.926 1398.53 643.441 1398.53ZM692.694 1404.69C688.742 1404.69 685.148 1403.79 681.914 1402C678.732 1400.2 676.216 1397.66 674.368 1394.38C672.572 1391.04 671.673 1387.19 671.673 1382.82C671.673 1378.51 672.597 1374.71 674.445 1371.43C676.345 1368.09 678.911 1365.55 682.145 1363.81C685.379 1362.01 688.998 1361.11 693.002 1361.11C697.006 1361.11 700.625 1362.01 703.859 1363.81C707.093 1365.55 709.634 1368.07 711.482 1371.35C713.382 1374.64 714.331 1378.46 714.331 1382.82C714.331 1387.19 713.356 1391.04 711.405 1394.38C709.506 1397.66 706.914 1400.2 703.628 1402C700.343 1403.79 696.698 1404.69 692.694 1404.69ZM692.694 1398.53C695.21 1398.53 697.571 1397.94 699.778 1396.76C701.986 1395.58 703.757 1393.81 705.091 1391.45C706.477 1389.09 707.17 1386.21 707.17 1382.82C707.17 1379.44 706.503 1376.56 705.168 1374.2C703.834 1371.84 702.088 1370.09 699.932 1368.96C697.776 1367.78 695.441 1367.19 692.925 1367.19C690.359 1367.19 687.997 1367.78 685.841 1368.96C683.737 1370.09 682.043 1371.84 680.759 1374.2C679.476 1376.56 678.834 1379.44 678.834 1382.82C678.834 1386.26 679.45 1389.16 680.682 1391.53C681.966 1393.89 683.66 1395.66 685.764 1396.84C687.869 1397.97 690.179 1398.53 692.694 1398.53ZM747.106 1404L730.551 1385.37V1404H723.544V1347.02H730.551V1380.51L746.798 1361.8H756.577L736.711 1382.82L756.654 1404H747.106ZM766.791 1354.95C765.456 1354.95 764.327 1354.49 763.403 1353.56C762.479 1352.64 762.017 1351.51 762.017 1350.18C762.017 1348.84 762.479 1347.71 763.403 1346.79C764.327 1345.86 765.456 1345.4 766.791 1345.4C768.074 1345.4 769.152 1345.86 770.025 1346.79C770.949 1347.71 771.411 1348.84 771.411 1350.18C771.411 1351.51 770.949 1352.64 770.025 1353.56C769.152 1354.49 768.074 1354.95 766.791 1354.95ZM770.179 1361.8V1404H763.172V1361.8H770.179ZM802.68 1361.03C807.814 1361.03 811.972 1362.6 815.154 1365.73C818.337 1368.81 819.928 1373.28 819.928 1379.13V1404H812.998V1380.13C812.998 1375.92 811.946 1372.71 809.841 1370.5C807.737 1368.25 804.862 1367.12 801.217 1367.12C797.521 1367.12 794.57 1368.27 792.362 1370.58C790.206 1372.89 789.128 1376.25 789.128 1380.67V1404H782.121V1361.8H789.128V1367.81C790.514 1365.65 792.388 1363.99 794.749 1362.8C797.162 1361.62 799.806 1361.03 802.68 1361.03ZM848.776 1361.11C852.421 1361.11 855.604 1361.91 858.324 1363.5C861.096 1365.09 863.15 1367.09 864.484 1369.5V1361.8H871.568V1404.92C871.568 1408.77 870.747 1412.19 869.104 1415.17C867.462 1418.19 865.1 1420.56 862.02 1422.25C858.992 1423.94 855.45 1424.79 851.394 1424.79C845.85 1424.79 841.23 1423.48 837.534 1420.86C833.838 1418.25 831.657 1414.68 830.989 1410.16H837.919C838.689 1412.73 840.281 1414.78 842.693 1416.32C845.106 1417.91 848.006 1418.71 851.394 1418.71C855.244 1418.71 858.376 1417.5 860.788 1415.09C863.252 1412.68 864.484 1409.29 864.484 1404.92V1396.07C863.098 1398.53 861.045 1400.59 858.324 1402.23C855.604 1403.87 852.421 1404.69 848.776 1404.69C845.029 1404.69 841.615 1403.77 838.535 1401.92C835.507 1400.07 833.12 1397.48 831.374 1394.14C829.629 1390.81 828.756 1387.01 828.756 1382.75C828.756 1378.44 829.629 1374.66 831.374 1371.43C833.12 1368.14 835.507 1365.6 838.535 1363.81C841.615 1362.01 845.029 1361.11 848.776 1361.11ZM864.484 1382.82C864.484 1379.64 863.843 1376.87 862.559 1374.51C861.276 1372.15 859.531 1370.35 857.323 1369.12C855.167 1367.84 852.78 1367.19 850.162 1367.19C847.544 1367.19 845.157 1367.81 843.001 1369.04C840.845 1370.27 839.126 1372.07 837.842 1374.43C836.559 1376.79 835.917 1379.57 835.917 1382.75C835.917 1385.98 836.559 1388.81 837.842 1391.22C839.126 1393.58 840.845 1395.4 843.001 1396.68C845.157 1397.92 847.544 1398.53 850.162 1398.53C852.78 1398.53 855.167 1397.92 857.323 1396.68C859.531 1395.4 861.276 1393.58 862.559 1391.22C863.843 1388.81 864.484 1386.01 864.484 1382.82ZM921.109 1367.58H912.254V1404H905.247V1367.58H899.78V1361.8H905.247V1358.8C905.247 1354.08 906.453 1350.64 908.866 1348.48C911.33 1346.28 915.257 1345.17 920.647 1345.17V1351.02C917.567 1351.02 915.385 1351.64 914.102 1352.87C912.87 1354.05 912.254 1356.03 912.254 1358.8V1361.8H921.109V1367.58ZM947.682 1404.69C943.729 1404.69 940.136 1403.79 936.902 1402C933.719 1400.2 931.204 1397.66 929.356 1394.38C927.559 1391.04 926.661 1387.19 926.661 1382.82C926.661 1378.51 927.585 1374.71 929.433 1371.43C931.332 1368.09 933.899 1365.55 937.133 1363.81C940.367 1362.01 943.986 1361.11 947.99 1361.11C951.994 1361.11 955.613 1362.01 958.847 1363.81C962.081 1365.55 964.622 1368.07 966.47 1371.35C968.369 1374.64 969.319 1378.46 969.319 1382.82C969.319 1387.19 968.343 1391.04 966.393 1394.38C964.493 1397.66 961.901 1400.2 958.616 1402C955.33 1403.79 951.686 1404.69 947.682 1404.69ZM947.682 1398.53C950.197 1398.53 952.558 1397.94 954.766 1396.76C956.973 1395.58 958.744 1393.81 960.079 1391.45C961.465 1389.09 962.158 1386.21 962.158 1382.82C962.158 1379.44 961.49 1376.56 960.156 1374.2C958.821 1371.84 957.076 1370.09 954.92 1368.96C952.764 1367.78 950.428 1367.19 947.913 1367.19C945.346 1367.19 942.985 1367.78 940.829 1368.96C938.724 1370.09 937.03 1371.84 935.747 1374.2C934.463 1376.56 933.822 1379.44 933.822 1382.82C933.822 1386.26 934.438 1389.16 935.67 1391.53C936.953 1393.89 938.647 1395.66 940.752 1396.84C942.856 1397.97 945.166 1398.53 947.682 1398.53ZM985.539 1368.66C986.771 1366.24 988.516 1364.37 990.775 1363.04C993.085 1361.7 995.882 1361.03 999.168 1361.03V1368.27H997.32C989.466 1368.27 985.539 1372.53 985.539 1381.05V1404H978.532V1361.8H985.539V1368.66Z" fill="#797979"/>
<defs>
<clipPath id="clip0">
<rect width="704" height="1009" fill="white" transform="translate(186 110)"/>
</clipPath>
</defs>
</svg>
