<svg width="1333" height="920" viewBox="0 0 1333 920" fill="none" xmlns="http://www.w3.org/2000/svg">
<rect width="1333" height="920" fill="white"/>
<g clip-path="url(#clip0)">
<path d="M1197.45 352.349C1199.3 352.349 1214.64 351.169 1219.87 349.314C1225.26 347.459 1226.94 347.459 1225.76 343.919C1224.59 340.378 1220.37 336.163 1219.87 333.297C1219.19 330.262 1210.43 336.838 1210.43 336.838C1210.43 336.838 1217 328.576 1213.97 326.722C1210.93 324.867 1209.75 322.507 1207.39 323.181C1205.03 323.856 1201.5 328.576 1201.5 328.576C1201.5 328.576 1202.68 320.821 1199.14 321.495C1195.6 322.17 1187.84 333.297 1187.34 338.018C1186.66 342.907 1197.45 352.349 1197.45 352.349Z" fill="#E2E9F2"/>
<path d="M1177.23 354.203C1177.23 354.203 1179.59 341.221 1189.02 334.646C1189.02 334.646 1202 341.727 1204.36 351.843C1204.36 351.843 1195.43 360.779 1184.81 361.285C1174.36 361.79 1177.23 354.203 1177.23 354.203Z" fill="#AAAFB5"/>
<path d="M1013.91 448.787C1013.91 448.787 1034.64 455.868 1073.75 454.688C1112.85 453.508 1147.06 448.113 1161.38 442.212C1175.54 436.311 1205.2 414.393 1209.92 408.492L1212.96 399.051C1212.96 399.051 1195.77 354.709 1167.45 340.378C1138.97 326.216 1108.3 313.234 1075.09 310.705C1041.89 308.345 970.433 327.902 942.624 346.279C914.816 364.656 963.86 403.771 963.86 403.771L1013.91 448.787Z" fill="#E2E9F2"/>
<path d="M1224.08 413.381C1224.08 413.381 1231.16 418.102 1243.63 416.922C1256.1 415.742 1254.25 413.381 1256.61 411.021C1258.97 408.661 1249.53 406.3 1249.53 406.3C1249.53 406.3 1258.46 405.12 1258.46 403.266C1258.46 401.411 1258.46 397.365 1257.79 395.004C1257.11 392.644 1254.75 391.464 1253.57 387.923C1252.39 384.383 1252.9 381.348 1248.18 382.022C1243.46 382.697 1228.63 387.923 1225.09 390.283C1221.72 392.644 1224.08 413.381 1224.08 413.381Z" fill="#E2E9F2"/>
<path d="M1209.75 393.15C1209.75 393.15 1209.08 400.905 1206.72 404.446C1204.36 407.986 1204.87 413.887 1204.87 413.887C1204.87 413.887 1218.52 419.788 1230.82 416.922C1230.82 416.922 1233.85 407.986 1235.03 404.446C1236.21 400.905 1232.67 388.429 1229.64 387.923C1229.98 387.923 1218.69 386.743 1209.75 393.15Z" fill="#AAAFB5"/>
<path d="M1023.86 465.478C1004.98 382.359 941.95 327.396 941.276 326.89L947.175 320.146C949.871 322.507 1013.07 377.639 1032.62 463.624L1023.86 465.478Z" fill="#CCCCCC"/>
<path d="M1069.36 455.362C1055.37 354.878 976.5 321.832 975.657 321.495L979.028 313.234C979.871 313.571 1063.46 348.64 1078.3 454.182L1069.36 455.362Z" fill="#CCCCCC"/>
<path d="M1134.92 456.374C1118.91 389.272 1043.91 312.222 1043.07 311.379L1049.48 305.141C1052.68 308.345 1127 384.888 1143.69 454.351L1134.92 456.374Z" fill="#CCCCCC"/>
<path d="M1179.75 443.729C1175.37 368.703 1096.83 308.176 1095.99 307.502L1101.39 300.252C1104.76 302.781 1184.14 363.982 1188.69 443.055L1179.75 443.729Z" fill="#CCCCCC"/>
<path d="M648.528 587.207C648.528 587.207 656.449 602.212 669.764 610.473C683.247 618.735 696.224 620.758 697.741 618.735C699.258 616.711 691.505 608.787 695.044 608.45C698.584 608.113 715.606 615.868 724.201 614.014C732.796 611.991 710.718 581.306 704.145 578.102C697.404 574.899 665.045 579.62 657.124 580.463C649.371 581.137 648.528 587.207 648.528 587.207Z" fill="#7E6445"/>
<path d="M453.7 246.975C453.7 246.975 430.105 187.797 375.668 174.815C321.231 161.832 279.771 184.256 251.457 221.011C222.974 257.765 162.638 371.4 186.402 474.414C210.166 577.428 288.198 624.804 372.129 630.705C456.06 636.606 600.495 623.624 631.338 605.921C662.18 588.218 665.719 577.428 656.112 566.806C646.674 556.184 604.035 534.772 586.338 508.808C568.473 482.507 453.7 246.975 453.7 246.975Z" fill="#FC7B03"/>
<path d="M921.894 593.782C921.894 593.782 910.771 587.881 904.198 581.474C897.456 575.236 883.636 578.777 884.816 582.654C885.996 586.532 893.917 600.02 903.355 602.043C912.793 604.066 921.894 593.782 921.894 593.782Z" fill="#D66C16"/>
<path d="M883.973 622.612C883.973 622.612 906.052 576.922 986.106 573.213C1066.16 569.672 1123.8 586.701 1153.8 603.223C1153.8 603.223 1157 605.247 1161.22 605.247C1165.6 605.247 1181.27 600.863 1189.7 604.404C1197.96 607.944 1190.03 617.386 1184.98 619.072C1179.92 620.589 1166.44 622.949 1160.88 620.589C1160.88 620.589 1150.26 644.193 1130.04 648.239C1130.04 648.239 1135.93 651.443 1138.29 657.681C1140.65 663.919 1143.01 665.942 1142.68 668.302C1142.34 670.663 1137.11 671.843 1131.55 669.82C1125.99 667.797 1113.35 665.099 1110.32 659.198C1110.32 659.198 962.343 694.772 889.366 639.472C889.366 639.472 879.086 643.013 868.468 640.989C857.85 638.966 846.053 630.368 847.569 627.164C849.086 623.961 852.626 628.682 862.569 625.984C872.513 623.455 877.232 620.252 883.973 622.612Z" fill="#FC7B03"/>
<path d="M98.0892 371.906C98.0892 371.906 92.5275 370.052 87.4714 366.342C82.4153 362.633 81.2355 361.959 77.5277 352.012C73.8199 342.064 80.0558 328.914 80.0558 328.914C79.0446 325.204 74.6626 311.717 72.4717 305.141C71.966 303.455 73.4829 301.769 75.1682 302.275C84.9433 305.478 93.0331 316.437 93.0331 316.437C98.0892 313.908 116.628 312.728 116.628 312.728C118.313 307.839 121.347 300.083 124.381 296.037C125.898 294.182 128.763 294.519 129.942 296.543C134.999 305.816 132.133 316.437 132.133 316.437C132.133 316.437 138.369 327.733 140.897 341.39C143.425 355.046 130.954 365.668 130.954 365.668C130.954 365.668 147.133 372.581 150.841 386.237C159.942 419.788 189.773 488.239 183.2 522.127C177.638 551.464 154.549 542.022 154.549 542.022C154.549 542.022 154.549 542.022 164.492 547.08C174.436 552.138 231.064 546.574 212.357 531.569C193.649 516.564 197.357 501.727 198.705 487.902C199.885 474.245 208.649 464.298 218.761 460.42C228.873 456.711 241.176 453.002 243.03 466.49C244.884 479.978 219.604 472.054 218.593 501.053C217.413 530.052 254.828 514.035 246.907 545.731C238.817 577.428 159.773 580.631 138.032 573.55C116.291 566.469 120.842 552.644 120.842 552.644C120.842 552.644 108.707 562.085 88.8197 547.417C68.9324 532.749 63.8763 497.343 60.5056 483.35C57.1349 469.525 75.6738 465.984 75.6738 465.984C76.1794 428.555 89.4938 385.731 89.4938 385.731C89.4938 385.731 90.6736 376.29 98.0892 371.906Z" fill="#EAE6D6"/>
<path d="M1183.8 528.197C1183.8 528.197 1180.26 532.075 1188.52 530.389C1207.39 526.511 1240.43 535.278 1247.67 533.592C1262.34 530.052 1262.51 508.134 1261.83 492.117C1261.49 482.507 1259.81 471.717 1258.12 462.612C1256.94 456.543 1254.25 462.106 1253.24 458.566C1250.88 449.63 1249.53 449.63 1241.27 449.63C1234.19 449.63 1230.32 445.247 1227.62 457.891C1227.11 460.083 1226.78 462.275 1226.44 464.467C1224.08 479.304 1222.9 497.006 1210.43 498.861C1210.43 498.861 1188.52 498.187 1183.8 498.187C1179.08 498.018 1183.8 528.197 1183.8 528.197Z" fill="#AAA87C"/>
<path d="M1258.12 462.444C1256.94 456.374 1255.76 451.148 1254.75 447.607C1252.39 438.671 1250.54 432.77 1242.28 432.77C1235.2 432.77 1230.32 444.909 1227.45 457.554C1227.45 457.554 1242.28 464.973 1256.27 462.949L1258.12 462.444Z" fill="#E2E0A5"/>
<path d="M792.627 412.201C792.627 412.201 807.964 399.219 818.581 393.824C829.199 388.429 831.559 387.923 836.278 387.249C840.997 386.574 851.614 392.644 861.052 396.184C870.49 399.725 898.973 430.579 917.344 442.886C935.714 455.363 984.758 476.1 984.758 476.1L1009.53 470.705C1009.53 470.705 1023.18 458.229 1023.69 453.002C1024.36 447.607 973.972 389.609 969.927 383.708C965.713 377.807 911.95 300.252 901.333 287.27C890.715 274.288 875.378 258.271 860.547 258.271C845.716 258.271 793.132 262.992 759.931 291.991C726.729 320.989 640.944 377.807 640.944 377.807L635.551 427.544L792.627 412.201Z" fill="#333333"/>
<path d="M754.201 233.318C754.201 233.318 747.122 225.563 747.122 223.877C747.122 222.022 836.446 150.536 839.48 149.862C842.513 149.188 845.379 185.942 870.322 203.645C870.322 203.645 868.468 242.085 886.838 260.463L807.627 339.704L803.413 331.948L770.886 252.033L754.201 233.318Z" fill="#FC7B03"/>
<path d="M864.929 209.546C864.929 209.546 833.075 187.122 828.188 168.745L744.762 233.824C744.762 233.824 751.335 255.742 772.571 269.398L781.503 276.479L864.929 209.546Z" fill="#EFEDE4"/>
<path d="M601.001 531.063C601.001 531.063 621.731 539.325 636.562 541.685C651.393 544.045 669.09 545.226 692.853 545.226C716.617 545.226 757.908 549.44 797.009 548.766C836.109 548.092 889.366 538.144 922.4 544.551C955.601 551.126 1080.99 559.894 1124.14 553.993C1167.28 548.092 1189.87 538.65 1189.87 538.65C1189.87 538.65 1183.97 513.866 1188.69 490.768C1188.69 490.768 1163.24 487.228 1142 483.013C1120.77 478.798 1010.04 460.589 998.241 457.554C986.443 454.52 949.197 447.438 933.691 443.898C918.355 440.357 895.771 432.096 872.176 424.34C848.581 416.585 799.368 407.143 792.964 405.963C786.391 404.783 781.166 404.783 779.312 401.748C777.458 398.713 718.302 391.126 703.64 391.126C688.808 391.126 637.405 405.289 637.405 405.289L597.125 503.582L601.001 531.063Z" fill="#383838"/>
<path d="M493.981 188.471C493.981 188.471 509.318 154.751 511.171 141.095L520.104 115.131L521.958 83.7713L561.564 88.4921L599.484 118.165C599.484 118.165 603.698 153.065 603.698 154.92C603.698 156.774 601.338 160.821 598.305 160.821C595.271 160.821 591.732 161.495 591.732 161.495C591.732 161.495 588.192 172.791 587.518 176.332C586.844 179.872 582.799 184.593 573.361 185.268C563.923 185.942 559.204 183.413 559.204 183.413C559.204 183.413 548.586 206.511 547.407 214.267C546.227 222.022 521.958 210.726 521.958 210.726L493.981 188.471Z" fill="#AA7D53"/>
<path d="M600.327 130.136C600.327 130.136 603.361 152.897 603.361 154.583C603.361 156.269 601.001 160.484 597.967 160.484C594.934 160.484 591.395 161.158 591.395 161.158C591.395 161.158 590.889 161.327 590.889 157.955C590.889 154.583 596.956 130.979 596.956 130.979C596.956 130.979 597.462 129.462 600.327 130.136Z" fill="#6E543A"/>
<path d="M576.732 126.258C576.732 126.258 580.608 125.415 584.99 126.595C589.372 127.776 591.226 130.473 592.406 127.776C593.586 125.078 594.428 121.537 590.383 119.851C586.507 118.334 580.44 116.648 577.743 117.154C575.047 117.491 572.181 119.851 572.181 121.875C572.35 123.898 575.889 127.438 576.732 126.258Z" fill="#3E3020"/>
<path d="M556.17 118.84C556.17 118.84 552.294 104.172 544.71 101.811C537.294 99.451 532.07 95.5732 529.373 100.294C526.677 105.015 530.89 122.38 542.856 125.921C542.856 125.921 547.575 127.944 543.193 133.002C538.811 138.06 527.856 147.67 523.137 148.007C518.418 148.345 511.34 145.984 510.16 145.647C508.98 145.31 501.059 134.52 497.183 125.078C493.307 115.636 491.284 110.073 493.981 96.2476C496.677 82.4226 512.52 50.0516 531.059 50.5574C537.463 50.726 540.16 50.8946 540.16 50.8946C540.16 50.8946 537.463 39.2613 540.497 34.0348C543.193 29.4826 545.89 29.9884 546.901 35.215C548.081 41.1159 553.98 50.0516 553.98 50.0516C553.98 50.0516 552.8 38.5869 554.822 37.0696C556.845 35.5522 559.541 43.3077 563.418 47.0169C567.294 50.5574 565.777 56.1212 565.777 56.1212C565.777 56.1212 574.035 54.941 579.934 56.4584C585.833 57.9758 596.451 69.4405 597.293 75.8472C598.136 82.0854 603.192 92.0327 609.596 98.2708C615.832 104.509 615.158 108.218 615.158 110.579C615.158 112.939 607.237 124.404 599.821 120.863C592.406 117.322 579.597 110.747 578.08 109.904C575.047 108.387 571.507 109.23 569.485 112.096C567.294 115.299 564.766 119.008 563.923 120.863C562.069 124.235 557.35 120.357 556.17 118.84Z" fill="#3E3020"/>
<path d="M448.139 218.144C448.139 218.144 435.498 249.672 436.341 266.364C437.184 282.886 473.419 408.492 482.857 424.172C492.295 440.02 508.138 470.705 508.138 470.705C508.138 470.705 566.451 518.924 581.451 526.68C596.45 534.604 601.001 531.063 601.001 531.063C601.001 531.063 632.012 494.309 637.405 468.345C642.966 442.38 642.966 435.131 645.326 426.532C647.685 417.934 650.888 400.568 651.562 395.679C652.404 390.958 653.079 364.151 653.079 364.151C653.079 364.151 595.439 329.419 591.563 323.181C587.855 316.774 448.139 218.144 448.139 218.144Z" fill="#B5B576"/>
<path d="M550.777 517.238C550.777 517.238 617.012 477.786 638.416 400.399C659.652 323.013 646.337 323.013 646.337 323.013L634.54 320.652C634.54 320.652 608.922 395.51 590.383 419.282C570.665 444.572 564.429 457.891 533.587 469.019C517.407 474.92 502.745 476.943 502.745 476.943C502.745 476.943 522.463 497.512 524.823 499.03C527.014 500.716 550.777 517.238 550.777 517.238Z" fill="#639A67"/>
<path d="M474.936 432.096C474.936 432.096 538.811 436.817 581.451 377.639C624.09 318.46 627.124 307.333 627.124 307.333L613.641 291.485C613.641 291.485 544.204 369.546 516.564 377.47C488.924 385.394 457.408 383.034 457.408 383.034L474.936 432.096Z" fill="#639A67"/>
<path d="M442.577 334.14C442.577 334.14 478.812 344.425 523.812 322.338C568.811 300.252 599.484 271.084 599.484 271.084L591.563 251.358C591.563 251.358 485.385 298.566 423.364 264.846L442.577 334.14Z" fill="#639A67"/>
<path d="M559.373 373.592C559.373 373.592 612.293 416.922 649.371 418.608C686.449 420.125 726.729 371.232 737.684 349.988C748.807 328.745 754.2 317.618 759.762 315.257C765.324 312.897 786.559 303.455 786.559 303.455L801.559 284.572L779.481 254.562C779.481 254.562 763.638 262.486 754.2 279.008C744.762 295.531 706.842 324.699 692.685 331.948C678.528 339.03 660.326 350.831 654.09 350.157C647.854 349.314 608.417 323.35 605.889 321.664C603.529 319.978 559.373 373.592 559.373 373.592Z" fill="#AA7D53"/>
<path d="M776.784 255.236C776.784 255.236 789.762 252.201 795.66 250.515C801.559 248.829 804.593 243.434 807.458 243.434C810.323 243.434 812.851 250.009 808.638 254.056C804.424 258.271 786.728 270.073 785.548 273.613C784.368 277.154 790.436 299.409 790.436 299.409L778.133 307.67L767.178 276.648C767.178 276.648 773.751 257.596 776.784 255.236Z" fill="#A5744C"/>
<path d="M545.721 117.997C545.721 117.997 545.384 110.241 540.328 108.218C535.272 106.195 534.935 109.061 535.946 112.096C536.789 115.131 538.306 118.84 540.328 118.334C542.351 117.66 545.047 119.514 545.721 117.997Z" fill="#6E543A"/>
<path d="M584.99 148.176C584.99 148.176 578.08 143.118 572.013 142.781C566.114 142.444 566.114 150.368 568.305 150.874C570.496 151.548 576.9 151.885 580.608 153.74C584.485 155.594 586.676 150.199 584.99 148.176Z" fill="#9B6150"/>
<path d="M582.799 139.409C584.382 139.409 585.664 138.126 585.664 136.543C585.664 134.96 584.382 133.677 582.799 133.677C581.217 133.677 579.934 134.96 579.934 136.543C579.934 138.126 581.217 139.409 582.799 139.409Z" fill="#3E3020"/>
<path d="M495.497 181.896C495.497 181.896 466.341 189.82 455.217 202.465C444.094 215.11 441.06 248.155 441.734 257.765C442.577 267.207 466.172 295.7 482.015 309.862C497.857 324.024 553.811 382.528 558.53 381.685C563.249 380.842 609.091 337.512 614.484 320.146C614.484 320.146 616.843 317.786 613.641 313.908C610.439 310.031 594.765 287.944 587.687 270.579C580.608 253.213 565.608 218.482 547.407 204.319C529.373 189.82 507.295 181.053 495.497 181.896Z" fill="#C2C57F"/>
<path d="M442.577 334.14C442.577 334.14 478.812 344.425 523.812 322.338C568.811 300.252 599.484 271.084 599.484 271.084L591.563 251.358C591.563 251.358 485.385 298.566 423.364 264.846L442.577 334.14Z" fill="#6FA571"/>
<path d="M427.577 233.318C427.577 233.318 466.004 241.074 500.891 235.173C535.778 229.272 565.44 216.29 565.44 216.29L556.508 203.308L538.811 192.012C538.811 192.012 484.374 207.354 445.948 197.913L427.577 233.318Z" fill="#6FA571"/>
<path d="M515.216 348.808C515.216 348.808 576.732 333.466 602.181 286.595L614.653 302.612C614.653 302.612 559.71 372.412 543.025 374.772L515.216 348.808Z" fill="#6FA571"/>
<path d="M778.47 279.008C778.47 279.008 773.076 288.45 776.11 300.926C779.144 313.403 795.66 344.762 795.66 344.762L872.007 270.747C872.007 270.747 862.569 225.225 864.255 209.714L778.47 279.008Z" fill="#FCFAEF"/>
<path d="M528.193 560.737C528.193 560.737 511.677 482.675 509.317 449.462C506.958 416.248 491.621 342.907 456.06 304.973C420.499 267.038 387.466 257.596 375.668 257.596C363.871 257.596 341.287 303.792 341.287 303.792L453.701 505.099L528.193 560.737Z" fill="#FC7B03"/>
<path d="M599.316 543.371C598.979 543.371 598.641 543.202 598.473 543.034C574.372 527.186 514.542 479.304 512.014 476.775C509.654 474.414 508.306 458.566 507.801 449.462C505.273 413.044 488.587 341.896 455.049 306.153C420.33 269.061 387.971 259.282 375.837 259.282C374.826 259.282 374.151 258.608 374.151 257.596C374.151 256.585 374.826 255.91 375.837 255.91C388.645 255.91 422.016 265.858 457.577 303.792C496.003 344.762 509.317 422.654 511.34 449.293C512.014 460.083 513.531 472.897 514.542 474.583C517.07 477.112 576.563 524.657 600.495 540.336C601.338 540.842 601.507 541.854 601.001 542.697C600.327 543.034 599.821 543.371 599.316 543.371Z" fill="#DB7E65"/>
<path d="M504.598 497.344C503.756 497.344 503.081 496.838 502.913 495.995C468.026 344.593 373.309 288.113 372.297 287.607C371.455 287.101 371.286 286.09 371.623 285.247C372.129 284.404 373.14 284.235 373.983 284.572C374.994 285.078 470.891 342.401 506.115 495.152C506.284 495.995 505.778 497.006 504.935 497.175C504.767 497.344 504.767 497.344 504.598 497.344Z" fill="#D36205"/>
</g>
<path d="M285.675 765.785L264.11 807.015V832H255.465V807.015L233.805 765.785H243.4L259.74 799.32L276.08 765.785H285.675ZM317.499 832.855C312.622 832.855 308.189 831.747 304.199 829.53C300.272 827.313 297.169 824.178 294.889 820.125C292.672 816.008 291.564 811.258 291.564 805.875C291.564 800.555 292.704 795.868 294.984 791.815C297.327 787.698 300.494 784.563 304.484 782.41C308.474 780.193 312.939 779.085 317.879 779.085C322.819 779.085 327.284 780.193 331.274 782.41C335.264 784.563 338.399 787.667 340.679 791.72C343.022 795.773 344.194 800.492 344.194 805.875C344.194 811.258 342.99 816.008 340.584 820.125C338.24 824.178 335.042 827.313 330.989 829.53C326.935 831.747 322.439 832.855 317.499 832.855ZM317.499 825.255C320.602 825.255 323.515 824.527 326.239 823.07C328.962 821.613 331.147 819.428 332.794 816.515C334.504 813.602 335.359 810.055 335.359 805.875C335.359 801.695 334.535 798.148 332.889 795.235C331.242 792.322 329.089 790.168 326.429 788.775C323.769 787.318 320.887 786.59 317.784 786.59C314.617 786.59 311.704 787.318 309.044 788.775C306.447 790.168 304.357 792.322 302.774 795.235C301.19 798.148 300.399 801.695 300.399 805.875C300.399 810.118 301.159 813.697 302.679 816.61C304.262 819.523 306.352 821.708 308.949 823.165C311.545 824.558 314.395 825.255 317.499 825.255ZM401.73 779.94V832H393.085V824.305C391.438 826.965 389.127 829.055 386.15 830.575C383.237 832.032 380.007 832.76 376.46 832.76C372.407 832.76 368.765 831.937 365.535 830.29C362.305 828.58 359.74 826.047 357.84 822.69C356.003 819.333 355.085 815.248 355.085 810.435V779.94H363.635V809.295C363.635 814.425 364.933 818.383 367.53 821.17C370.127 823.893 373.673 825.255 378.17 825.255C382.793 825.255 386.435 823.83 389.095 820.98C391.755 818.13 393.085 813.982 393.085 808.535V779.94H401.73ZM424.972 788.395C426.492 785.418 428.645 783.107 431.432 781.46C434.282 779.813 437.733 778.99 441.787 778.99V787.92H439.507C429.817 787.92 424.972 793.177 424.972 803.69V832H416.327V779.94H424.972V788.395ZM473.863 798.845C473.863 792.385 475.32 786.59 478.233 781.46C481.147 776.267 485.105 772.213 490.108 769.3C495.175 766.387 500.78 764.93 506.923 764.93C514.143 764.93 520.445 766.672 525.828 770.155C531.212 773.638 535.138 778.578 537.608 784.975H527.253C525.417 780.985 522.757 777.913 519.273 775.76C515.853 773.607 511.737 772.53 506.923 772.53C502.3 772.53 498.152 773.607 494.478 775.76C490.805 777.913 487.923 780.985 485.833 784.975C483.743 788.902 482.698 793.525 482.698 798.845C482.698 804.102 483.743 808.725 485.833 812.715C487.923 816.642 490.805 819.682 494.478 821.835C498.152 823.988 502.3 825.065 506.923 825.065C511.737 825.065 515.853 824.02 519.273 821.93C522.757 819.777 525.417 816.705 527.253 812.715H537.608C535.138 819.048 531.212 823.957 525.828 827.44C520.445 830.86 514.143 832.57 506.923 832.57C500.78 832.57 495.175 831.145 490.108 828.295C485.105 825.382 481.147 821.36 478.233 816.23C475.32 811.1 473.863 805.305 473.863 798.845ZM547.247 805.78C547.247 800.46 548.324 795.805 550.477 791.815C552.63 787.762 555.575 784.627 559.312 782.41C563.112 780.193 567.324 779.085 571.947 779.085C576.507 779.085 580.465 780.067 583.822 782.03C587.179 783.993 589.68 786.463 591.327 789.44V779.94H600.067V832H591.327V822.31C589.617 825.35 587.052 827.883 583.632 829.91C580.275 831.873 576.349 832.855 571.852 832.855C567.229 832.855 563.049 831.715 559.312 829.435C555.575 827.155 552.63 823.957 550.477 819.84C548.324 815.723 547.247 811.037 547.247 805.78ZM591.327 805.875C591.327 801.948 590.535 798.528 588.952 795.615C587.369 792.702 585.215 790.485 582.492 788.965C579.832 787.382 576.887 786.59 573.657 786.59C570.427 786.59 567.482 787.35 564.822 788.87C562.162 790.39 560.04 792.607 558.457 795.52C556.874 798.433 556.082 801.853 556.082 805.78C556.082 809.77 556.874 813.253 558.457 816.23C560.04 819.143 562.162 821.392 564.822 822.975C567.482 824.495 570.427 825.255 573.657 825.255C576.887 825.255 579.832 824.495 582.492 822.975C585.215 821.392 587.369 819.143 588.952 816.23C590.535 813.253 591.327 809.802 591.327 805.875ZM623.321 788.395C624.841 785.418 626.995 783.107 629.781 781.46C632.631 779.813 636.083 778.99 640.136 778.99V787.92H637.856C628.166 787.92 623.321 793.177 623.321 803.69V832H614.676V779.94H623.321V788.395ZM660.661 787.065V817.75C660.661 820.283 661.199 822.088 662.276 823.165C663.352 824.178 665.221 824.685 667.881 824.685H674.246V832H666.456C661.642 832 658.032 830.892 655.626 828.675C653.219 826.458 652.016 822.817 652.016 817.75V787.065H645.271V779.94H652.016V766.83H660.661V779.94H674.246V787.065H660.661ZM714.512 771.485C712.866 771.485 711.472 770.915 710.332 769.775C709.192 768.635 708.622 767.242 708.622 765.595C708.622 763.948 709.192 762.555 710.332 761.415C711.472 760.275 712.866 759.705 714.512 759.705C716.096 759.705 717.426 760.275 718.502 761.415C719.642 762.555 720.212 763.948 720.212 765.595C720.212 767.242 719.642 768.635 718.502 769.775C717.426 770.915 716.096 771.485 714.512 771.485ZM718.692 779.94V832H710.047V779.94H718.692ZM751.856 832.855C747.866 832.855 744.288 832.19 741.121 830.86C737.955 829.467 735.453 827.567 733.616 825.16C731.78 822.69 730.766 819.872 730.576 816.705H739.506C739.76 819.302 740.963 821.423 743.116 823.07C745.333 824.717 748.215 825.54 751.761 825.54C755.055 825.54 757.651 824.812 759.551 823.355C761.451 821.898 762.401 820.062 762.401 817.845C762.401 815.565 761.388 813.887 759.361 812.81C757.335 811.67 754.2 810.562 749.956 809.485C746.093 808.472 742.926 807.458 740.456 806.445C738.05 805.368 735.96 803.817 734.186 801.79C732.476 799.7 731.621 796.977 731.621 793.62C731.621 790.96 732.413 788.522 733.996 786.305C735.58 784.088 737.828 782.347 740.741 781.08C743.655 779.75 746.98 779.085 750.716 779.085C756.48 779.085 761.135 780.542 764.681 783.455C768.228 786.368 770.128 790.358 770.381 795.425H761.736C761.546 792.702 760.438 790.517 758.411 788.87C756.448 787.223 753.788 786.4 750.431 786.4C747.328 786.4 744.858 787.065 743.021 788.395C741.185 789.725 740.266 791.467 740.266 793.62C740.266 795.33 740.805 796.755 741.881 797.895C743.021 798.972 744.415 799.858 746.061 800.555C747.771 801.188 750.115 801.917 753.091 802.74C756.828 803.753 759.868 804.767 762.211 805.78C764.555 806.73 766.55 808.187 768.196 810.15C769.906 812.113 770.793 814.678 770.856 817.845C770.856 820.695 770.065 823.26 768.481 825.54C766.898 827.82 764.65 829.625 761.736 830.955C758.886 832.222 755.593 832.855 751.856 832.855ZM817.032 772.815V794.95H841.162V802.075H817.032V824.875H844.012V832H808.387V765.69H844.012V772.815H817.032ZM919.698 778.99C923.752 778.99 927.362 779.845 930.528 781.555C933.695 783.202 936.197 785.703 938.033 789.06C939.87 792.417 940.788 796.502 940.788 801.315V832H932.238V802.55C932.238 797.357 930.94 793.398 928.343 790.675C925.81 787.888 922.358 786.495 917.988 786.495C913.492 786.495 909.913 787.952 907.253 790.865C904.593 793.715 903.263 797.863 903.263 803.31V832H894.713V802.55C894.713 797.357 893.415 793.398 890.818 790.675C888.285 787.888 884.833 786.495 880.463 786.495C875.967 786.495 872.388 787.952 869.728 790.865C867.068 793.715 865.738 797.863 865.738 803.31V832H857.093V779.94H865.738V787.445C867.448 784.722 869.728 782.632 872.578 781.175C875.492 779.718 878.69 778.99 882.173 778.99C886.543 778.99 890.407 779.972 893.763 781.935C897.12 783.898 899.622 786.78 901.268 790.58C902.725 786.907 905.132 784.057 908.488 782.03C911.845 780.003 915.582 778.99 919.698 778.99ZM963.614 789.535C965.324 786.558 967.858 784.088 971.214 782.125C974.634 780.098 978.593 779.085 983.089 779.085C987.713 779.085 991.893 780.193 995.629 782.41C999.429 784.627 1002.41 787.762 1004.56 791.815C1006.71 795.805 1007.79 800.46 1007.79 805.78C1007.79 811.037 1006.71 815.723 1004.56 819.84C1002.41 823.957 999.429 827.155 995.629 829.435C991.893 831.715 987.713 832.855 983.089 832.855C978.656 832.855 974.729 831.873 971.309 829.91C967.953 827.883 965.388 825.382 963.614 822.405V856.7H954.969V779.94H963.614V789.535ZM998.954 805.78C998.954 801.853 998.163 798.433 996.579 795.52C994.996 792.607 992.843 790.39 990.119 788.87C987.459 787.35 984.514 786.59 981.284 786.59C978.118 786.59 975.173 787.382 972.449 788.965C969.789 790.485 967.636 792.733 965.989 795.71C964.406 798.623 963.614 802.012 963.614 805.875C963.614 809.802 964.406 813.253 965.989 816.23C967.636 819.143 969.789 821.392 972.449 822.975C975.173 824.495 978.118 825.255 981.284 825.255C984.514 825.255 987.459 824.495 990.119 822.975C992.843 821.392 994.996 819.143 996.579 816.23C998.163 813.253 998.954 809.77 998.954 805.78ZM1029.71 787.065V817.75C1029.71 820.283 1030.25 822.088 1031.33 823.165C1032.41 824.178 1034.27 824.685 1036.93 824.685H1043.3V832H1035.51C1030.7 832 1027.09 830.892 1024.68 828.675C1022.27 826.458 1021.07 822.817 1021.07 817.75V787.065H1014.32V779.94H1021.07V766.83H1029.71V779.94H1043.3V787.065H1029.71ZM1098.61 779.94L1067.26 856.51H1058.33L1068.59 831.43L1047.6 779.94H1057.19L1073.53 822.12L1089.68 779.94H1098.61Z" fill="#797979"/>
<defs>
<clipPath id="clip0">
<rect width="1202" height="640" fill="white" transform="translate(60 31)"/>
</clipPath>
</defs>
</svg>
