<svg width="167" height="33" viewBox="0 0 167 33" fill="none" xmlns="http://www.w3.org/2000/svg">
<path d="M7.0428 4.98296H0.143799V0.91748H18.9312V4.98296H12.0323V22.4768H7.0428V4.98296Z" fill="white"/>
<path d="M27.1183 5.66054C29.6849 5.66054 31.656 6.27653 33.0317 7.50849C34.4074 8.71992 35.0952 10.5576 35.0952 13.0215V22.4768H30.5986V20.4133C29.6951 21.9533 28.0114 22.7232 25.5475 22.7232C24.2745 22.7232 23.1657 22.5077 22.2212 22.0765C21.2972 21.6453 20.5889 21.0498 20.0961 20.2901C19.6033 19.5304 19.3569 18.668 19.3569 17.703C19.3569 16.163 19.9318 14.9516 21.0817 14.0687C22.252 13.1858 24.0486 12.7443 26.4715 12.7443H30.2906C30.2906 11.6972 29.9723 10.8964 29.3358 10.342C28.6993 9.76709 27.7445 9.47963 26.4715 9.47963C25.5886 9.47963 24.7159 9.62336 23.8536 9.91082C23.0117 10.1777 22.2931 10.5473 21.6976 11.0196L19.9729 7.66248C20.8763 7.02597 21.9543 6.53318 23.2068 6.18413C24.4798 5.83507 25.7836 5.66054 27.1183 5.66054ZM26.7487 19.4893C27.57 19.4893 28.2989 19.3045 28.9354 18.935C29.5719 18.5448 30.0237 17.9802 30.2906 17.241V15.5471H26.9951C25.0239 15.5471 24.0384 16.1938 24.0384 17.4874C24.0384 18.1034 24.2745 18.5962 24.7467 18.9658C25.2395 19.3148 25.9068 19.4893 26.7487 19.4893Z" fill="white"/>
<path d="M49.2378 5.66054C50.7778 5.66054 52.174 6.01987 53.4265 6.73851C54.6995 7.43662 55.6953 8.43246 56.414 9.72602C57.1326 10.9991 57.492 12.4877 57.492 14.1919C57.492 15.8961 57.1326 17.395 56.414 18.6886C55.6953 19.9616 54.6995 20.9574 53.4265 21.6761C52.174 22.3742 50.7778 22.7232 49.2378 22.7232C47.1229 22.7232 45.4598 22.0559 44.2483 20.7213C44.2483 20.7213 44.7564 30.8747 39.4437 32.1016V5.90693H44.0328V7.81648C45.2237 6.37919 46.9587 5.66054 49.2378 5.66054ZM48.4062 18.781C49.6382 18.781 50.6443 18.3703 51.4245 17.549C52.2253 16.7072 52.6257 15.5881 52.6257 14.1919C52.6257 12.7957 52.2253 11.6869 51.4245 10.8656C50.6443 10.0237 49.6382 9.60283 48.4062 9.60283C47.1743 9.60283 46.1579 10.0237 45.3571 10.8656C44.5769 11.6869 44.1868 12.7957 44.1868 14.1919C44.1868 15.5881 44.5769 16.7072 45.3571 17.549C46.1579 18.3703 47.1743 18.781 48.4062 18.781Z" fill="white"/>
<path d="M76.9394 14.2535C76.9394 14.3151 76.9086 14.7463 76.847 15.5471H64.3118C64.5377 16.5737 65.0715 17.3847 65.9134 17.9802C66.7552 18.5756 67.8024 18.8734 69.0549 18.8734C69.9172 18.8734 70.6769 18.7502 71.334 18.5038C72.0116 18.2368 72.6378 17.8262 73.2127 17.2718L75.7691 20.0437C74.2086 21.8301 71.9294 22.7232 68.9317 22.7232C67.0632 22.7232 65.4103 22.3639 63.973 21.6453C62.5357 20.9061 61.4269 19.8897 60.6467 18.5962C59.8665 17.3026 59.4763 15.8345 59.4763 14.1919C59.4763 12.5698 59.8562 11.112 60.6159 9.81842C61.3961 8.50433 62.4536 7.48796 63.7882 6.76931C65.1434 6.03013 66.6525 5.66054 68.3157 5.66054C69.9378 5.66054 71.4059 6.0096 72.7199 6.70771C74.034 7.40582 75.0607 8.41193 75.7999 9.72602C76.5596 11.0196 76.9394 12.5287 76.9394 14.2535ZM68.3465 9.29484C67.2582 9.29484 66.3445 9.60283 65.6054 10.2188C64.8662 10.8348 64.4145 11.6766 64.2502 12.7443H72.412C72.2477 11.6972 71.796 10.8656 71.0568 10.2496C70.3176 9.61309 69.4142 9.29484 68.3465 9.29484Z" fill="white"/>
<path d="M84.7273 8.09367C85.3022 7.29289 86.0722 6.68718 87.0372 6.27652C88.0228 5.86587 89.1521 5.66054 90.4251 5.66054V9.44488C90.1016 9.44488 89.5341 9.52131 89.2836 9.57453C87.8975 9.86909 86.8935 10.4241 86.1132 11.2044C85.333 11.9641 84.9429 13.1139 84.9429 14.6539V22.4768H80.1382V5.90693H84.7273V8.09367Z" fill="white"/>
<path d="M100.219 14.2473C101.759 14.2473 103.155 14.6066 104.408 15.3253C105.681 16.0234 106.677 17.0192 107.395 18.3128C108.114 19.5858 108.473 21.0744 108.473 22.7786C108.473 24.4829 108.114 25.9818 107.395 27.2753C106.677 28.5483 105.681 29.5442 104.408 30.2628C103.155 30.9609 101.759 31.31 100.219 31.31C97.94 31.31 96.2049 30.5913 95.014 29.1541V31.0636H90.425C90.425 21.5287 90.425 18.4868 90.425 9.26584C90.425 8.51126 90.2881 6.45883 88.9094 5.77137C89.7879 5.62436 90.4237 5.65377 90.4237 5.65377C90.4237 5.65377 92.3159 5.58249 93.782 7.41972C94.4014 8.19589 94.7081 8.87343 94.9158 10.2414C95.1795 11.9792 95.2296 16.2492 95.2296 16.2492C96.4411 14.9146 98.1042 14.2473 100.219 14.2473ZM99.3875 27.3677C100.619 27.3677 101.626 26.9571 102.406 26.1357C103.207 25.2939 103.607 24.1749 103.607 22.7786C103.607 21.3824 103.207 20.2737 102.406 19.4523C101.626 18.6105 100.619 18.1896 99.3875 18.1896C98.1556 18.1896 97.1392 18.6105 96.3384 19.4523C95.5582 20.2737 95.168 21.3824 95.168 22.7786C95.168 24.1749 95.5582 25.2939 96.3384 26.1357C97.1392 26.9571 98.1556 27.3677 99.3875 27.3677Z" fill="white"/>
<path d="M118.102 14.2473C120.669 14.2473 122.64 14.8633 124.016 16.0952C125.391 17.3067 126.079 19.1444 126.079 21.6083V31.0636H121.583V29.0001C120.679 30.54 118.995 31.31 116.532 31.31C115.259 31.31 114.15 31.0944 113.205 30.6632C112.281 30.232 111.573 29.6366 111.08 28.8769C110.587 28.1172 110.341 27.2548 110.341 26.2897C110.341 24.7498 110.916 23.5384 112.066 22.6554C113.236 21.7725 115.033 21.3311 117.456 21.3311H121.275C121.275 20.2839 120.956 19.4831 120.32 18.9288C119.683 18.3538 118.729 18.0664 117.456 18.0664C116.573 18.0664 115.7 18.2101 114.838 18.4976C113.996 18.7645 113.277 19.1341 112.682 19.6063L110.957 16.2492C111.86 15.6127 112.938 15.1199 114.191 14.7709C115.464 14.4218 116.768 14.2473 118.102 14.2473ZM117.733 28.0761C118.554 28.0761 119.283 27.8913 119.919 27.5217C120.556 27.1316 121.008 26.5669 121.275 25.8278V24.1338H117.979C116.008 24.1338 115.022 24.7806 115.022 26.0741C115.022 26.6901 115.259 27.1829 115.731 27.5525C116.224 27.9016 116.891 28.0761 117.733 28.0761Z" fill="white"/>
<path d="M138.616 31.31C136.85 31.31 135.259 30.9507 133.842 30.232C132.446 29.4928 131.347 28.4765 130.547 27.1829C129.766 25.8894 129.376 24.4213 129.376 22.7786C129.376 21.136 129.766 19.6679 130.547 18.3744C131.347 17.0808 132.446 16.0747 133.842 15.3561C135.259 14.6169 136.85 14.2473 138.616 14.2473C140.361 14.2473 141.881 14.6169 143.174 15.3561C144.488 16.0747 145.443 17.1116 146.039 18.4668L142.312 20.4687C141.449 18.9493 140.207 18.1896 138.585 18.1896C137.333 18.1896 136.296 18.6002 135.474 19.4215C134.653 20.2429 134.242 21.3619 134.242 22.7786C134.242 24.1954 134.653 25.3144 135.474 26.1357C136.296 26.9571 137.333 27.3677 138.585 27.3677C140.228 27.3677 141.47 26.608 142.312 25.0886L146.039 27.1213C145.443 28.4354 144.488 29.462 143.174 30.2012C141.881 30.9404 140.361 31.31 138.616 31.31Z" fill="white"/>
<path d="M155.799 24.565L153.489 26.8441V31.0636H148.685V8.21067H153.489V21.1463L160.511 14.4937H166.24L159.341 21.5159L166.856 31.0636H161.035L155.799 24.565Z" fill="white"/>
</svg>
