<svg width="998" height="1797" viewBox="0 0 998 1797" fill="none" xmlns="http://www.w3.org/2000/svg">
<rect width="998" height="1797" fill="white"/>
<rect width="998" height="1797" fill="#1C7FF3"/>
<path d="M179.125 1505C179.125 1500.88 180.045 1497.2 181.885 1493.96C183.765 1490.68 186.305 1488.14 189.505 1486.34C192.745 1484.5 196.365 1483.58 200.365 1483.58C205.045 1483.58 209.145 1484.78 212.665 1487.18C216.185 1489.58 218.645 1492.9 220.045 1497.14H210.385C209.425 1495.14 208.065 1493.64 206.305 1492.64C204.585 1491.64 202.585 1491.14 200.305 1491.14C197.865 1491.14 195.685 1491.72 193.765 1492.88C191.885 1494 190.405 1495.6 189.325 1497.68C188.285 1499.76 187.765 1502.2 187.765 1505C187.765 1507.76 188.285 1510.2 189.325 1512.32C190.405 1514.4 191.885 1516.02 193.765 1517.18C195.685 1518.3 197.865 1518.86 200.305 1518.86C202.585 1518.86 204.585 1518.36 206.305 1517.36C208.065 1516.32 209.425 1514.8 210.385 1512.8H220.045C218.645 1517.08 216.185 1520.42 212.665 1522.82C209.185 1525.18 205.085 1526.36 200.365 1526.36C196.365 1526.36 192.745 1525.46 189.505 1523.66C186.305 1521.82 183.765 1519.28 181.885 1516.04C180.045 1512.8 179.125 1509.12 179.125 1505ZM235.62 1497.92C236.7 1496.16 238.1 1494.78 239.82 1493.78C241.58 1492.78 243.58 1492.28 245.82 1492.28V1501.1H243.6C240.96 1501.1 238.96 1501.72 237.6 1502.96C236.28 1504.2 235.62 1506.36 235.62 1509.44V1526H227.22V1492.76H235.62V1497.92ZM282.378 1508.66C282.378 1509.86 282.298 1510.94 282.138 1511.9H257.838C258.038 1514.3 258.878 1516.18 260.358 1517.54C261.838 1518.9 263.658 1519.58 265.818 1519.58C268.938 1519.58 271.158 1518.24 272.478 1515.56H281.538C280.578 1518.76 278.738 1521.4 276.018 1523.48C273.298 1525.52 269.958 1526.54 265.998 1526.54C262.798 1526.54 259.918 1525.84 257.358 1524.44C254.838 1523 252.858 1520.98 251.418 1518.38C250.018 1515.78 249.318 1512.78 249.318 1509.38C249.318 1505.94 250.018 1502.92 251.418 1500.32C252.818 1497.72 254.778 1495.72 257.298 1494.32C259.818 1492.92 262.718 1492.22 265.998 1492.22C269.158 1492.22 271.978 1492.9 274.458 1494.26C276.978 1495.62 278.918 1497.56 280.278 1500.08C281.678 1502.56 282.378 1505.42 282.378 1508.66ZM273.678 1506.26C273.638 1504.1 272.858 1502.38 271.338 1501.1C269.818 1499.78 267.958 1499.12 265.758 1499.12C263.678 1499.12 261.918 1499.76 260.478 1501.04C259.078 1502.28 258.218 1504.02 257.898 1506.26H273.678ZM286.349 1509.26C286.349 1505.9 287.009 1502.92 288.329 1500.32C289.689 1497.72 291.509 1495.72 293.789 1494.32C296.109 1492.92 298.689 1492.22 301.529 1492.22C304.009 1492.22 306.169 1492.72 308.009 1493.72C309.889 1494.72 311.389 1495.98 312.509 1497.5V1492.76H320.969V1526H312.509V1521.14C311.429 1522.7 309.929 1524 308.009 1525.04C306.129 1526.04 303.949 1526.54 301.469 1526.54C298.669 1526.54 296.109 1525.82 293.789 1524.38C291.509 1522.94 289.689 1520.92 288.329 1518.32C287.009 1515.68 286.349 1512.66 286.349 1509.26ZM312.509 1509.38C312.509 1507.34 312.109 1505.6 311.309 1504.16C310.509 1502.68 309.429 1501.56 308.069 1500.8C306.709 1500 305.249 1499.6 303.689 1499.6C302.129 1499.6 300.689 1499.98 299.369 1500.74C298.049 1501.5 296.969 1502.62 296.129 1504.1C295.329 1505.54 294.929 1507.26 294.929 1509.26C294.929 1511.26 295.329 1513.02 296.129 1514.54C296.969 1516.02 298.049 1517.16 299.369 1517.96C300.729 1518.76 302.169 1519.16 303.689 1519.16C305.249 1519.16 306.709 1518.78 308.069 1518.02C309.429 1517.22 310.509 1516.1 311.309 1514.66C312.109 1513.18 312.509 1511.42 312.509 1509.38ZM338.953 1499.66V1515.74C338.953 1516.86 339.213 1517.68 339.733 1518.2C340.293 1518.68 341.213 1518.92 342.493 1518.92H346.393V1526H341.113C334.033 1526 330.493 1522.56 330.493 1515.68V1499.66H326.533V1492.76H330.493V1484.54H338.953V1492.76H346.393V1499.66H338.953ZM383.335 1508.66C383.335 1509.86 383.255 1510.94 383.095 1511.9H358.795C358.995 1514.3 359.835 1516.18 361.315 1517.54C362.795 1518.9 364.615 1519.58 366.775 1519.58C369.895 1519.58 372.115 1518.24 373.435 1515.56H382.495C381.535 1518.76 379.695 1521.4 376.975 1523.48C374.255 1525.52 370.915 1526.54 366.955 1526.54C363.755 1526.54 360.875 1525.84 358.315 1524.44C355.795 1523 353.815 1520.98 352.375 1518.38C350.975 1515.78 350.275 1512.78 350.275 1509.38C350.275 1505.94 350.975 1502.92 352.375 1500.32C353.775 1497.72 355.735 1495.72 358.255 1494.32C360.775 1492.92 363.675 1492.22 366.955 1492.22C370.115 1492.22 372.935 1492.9 375.415 1494.26C377.935 1495.62 379.875 1497.56 381.235 1500.08C382.635 1502.56 383.335 1505.42 383.335 1508.66ZM374.635 1506.26C374.595 1504.1 373.815 1502.38 372.295 1501.1C370.775 1499.78 368.915 1499.12 366.715 1499.12C364.635 1499.12 362.875 1499.76 361.435 1501.04C360.035 1502.28 359.175 1504.02 358.855 1506.26H374.635ZM435.563 1492.76L414.983 1541.72H406.043L413.243 1525.16L399.923 1492.76H409.343L417.923 1515.98L426.623 1492.76H435.563ZM454.851 1526.54C451.651 1526.54 448.771 1525.84 446.211 1524.44C443.651 1523 441.631 1520.98 440.151 1518.38C438.711 1515.78 437.991 1512.78 437.991 1509.38C437.991 1505.98 438.731 1502.98 440.211 1500.38C441.731 1497.78 443.791 1495.78 446.391 1494.38C448.991 1492.94 451.891 1492.22 455.091 1492.22C458.291 1492.22 461.191 1492.94 463.791 1494.38C466.391 1495.78 468.431 1497.78 469.911 1500.38C471.431 1502.98 472.191 1505.98 472.191 1509.38C472.191 1512.78 471.411 1515.78 469.851 1518.38C468.331 1520.98 466.251 1523 463.611 1524.44C461.011 1525.84 458.091 1526.54 454.851 1526.54ZM454.851 1519.22C456.371 1519.22 457.791 1518.86 459.111 1518.14C460.471 1517.38 461.551 1516.26 462.351 1514.78C463.151 1513.3 463.551 1511.5 463.551 1509.38C463.551 1506.22 462.711 1503.8 461.031 1502.12C459.391 1500.4 457.371 1499.54 454.971 1499.54C452.571 1499.54 450.551 1500.4 448.911 1502.12C447.311 1503.8 446.511 1506.22 446.511 1509.38C446.511 1512.54 447.291 1514.98 448.851 1516.7C450.451 1518.38 452.451 1519.22 454.851 1519.22ZM509.733 1492.76V1526H501.273V1521.8C500.193 1523.24 498.773 1524.38 497.013 1525.22C495.293 1526.02 493.413 1526.42 491.373 1526.42C488.773 1526.42 486.473 1525.88 484.473 1524.8C482.473 1523.68 480.893 1522.06 479.733 1519.94C478.613 1517.78 478.053 1515.22 478.053 1512.26V1492.76H486.453V1511.06C486.453 1513.7 487.113 1515.74 488.433 1517.18C489.753 1518.58 491.553 1519.28 493.833 1519.28C496.153 1519.28 497.973 1518.58 499.293 1517.18C500.613 1515.74 501.273 1513.7 501.273 1511.06V1492.76H509.733ZM526.421 1497.92C527.501 1496.16 528.901 1494.78 530.621 1493.78C532.381 1492.78 534.381 1492.28 536.621 1492.28V1501.1H534.401C531.761 1501.1 529.761 1501.72 528.401 1502.96C527.081 1504.2 526.421 1506.36 526.421 1509.44V1526H518.021V1492.76H526.421V1497.92ZM571.336 1526.54C568.136 1526.54 565.256 1525.84 562.696 1524.44C560.136 1523 558.116 1520.98 556.636 1518.38C555.196 1515.78 554.476 1512.78 554.476 1509.38C554.476 1505.98 555.216 1502.98 556.696 1500.38C558.216 1497.78 560.276 1495.78 562.876 1494.38C565.476 1492.94 568.376 1492.22 571.576 1492.22C574.776 1492.22 577.676 1492.94 580.276 1494.38C582.876 1495.78 584.916 1497.78 586.396 1500.38C587.916 1502.98 588.676 1505.98 588.676 1509.38C588.676 1512.78 587.896 1515.78 586.336 1518.38C584.816 1520.98 582.736 1523 580.096 1524.44C577.496 1525.84 574.576 1526.54 571.336 1526.54ZM571.336 1519.22C572.856 1519.22 574.276 1518.86 575.596 1518.14C576.956 1517.38 578.036 1516.26 578.836 1514.78C579.636 1513.3 580.036 1511.5 580.036 1509.38C580.036 1506.22 579.196 1503.8 577.516 1502.12C575.876 1500.4 573.856 1499.54 571.456 1499.54C569.056 1499.54 567.036 1500.4 565.396 1502.12C563.796 1503.8 562.996 1506.22 562.996 1509.38C562.996 1512.54 563.776 1514.98 565.336 1516.7C566.936 1518.38 568.936 1519.22 571.336 1519.22ZM640.917 1492.76L631.197 1526H622.137L616.077 1502.78L610.017 1526H600.897L591.117 1492.76H599.637L605.517 1518.08L611.877 1492.76H620.757L626.997 1518.02L632.877 1492.76H640.917ZM663.882 1492.28C667.842 1492.28 671.042 1493.54 673.482 1496.06C675.922 1498.54 677.142 1502.02 677.142 1506.5V1526H668.742V1507.64C668.742 1505 668.082 1502.98 666.762 1501.58C665.442 1500.14 663.642 1499.42 661.362 1499.42C659.042 1499.42 657.202 1500.14 655.842 1501.58C654.522 1502.98 653.862 1505 653.862 1507.64V1526H645.462V1492.76H653.862V1496.9C654.982 1495.46 656.402 1494.34 658.122 1493.54C659.882 1492.7 661.802 1492.28 663.882 1492.28ZM714.187 1526.54C710.987 1526.54 708.107 1525.84 705.547 1524.44C702.987 1523 700.967 1520.98 699.487 1518.38C698.047 1515.78 697.327 1512.78 697.327 1509.38C697.327 1505.98 698.067 1502.98 699.547 1500.38C701.067 1497.78 703.127 1495.78 705.727 1494.38C708.327 1492.94 711.227 1492.22 714.427 1492.22C717.627 1492.22 720.527 1492.94 723.127 1494.38C725.727 1495.78 727.767 1497.78 729.247 1500.38C730.767 1502.98 731.527 1505.98 731.527 1509.38C731.527 1512.78 730.747 1515.78 729.187 1518.38C727.667 1520.98 725.587 1523 722.947 1524.44C720.347 1525.84 717.427 1526.54 714.187 1526.54ZM714.187 1519.22C715.707 1519.22 717.127 1518.86 718.447 1518.14C719.807 1517.38 720.887 1516.26 721.687 1514.78C722.487 1513.3 722.887 1511.5 722.887 1509.38C722.887 1506.22 722.047 1503.8 720.367 1502.12C718.727 1500.4 716.707 1499.54 714.307 1499.54C711.907 1499.54 709.887 1500.4 708.247 1502.12C706.647 1503.8 705.847 1506.22 705.847 1509.38C705.847 1512.54 706.627 1514.98 708.187 1516.7C709.787 1518.38 711.787 1519.22 714.187 1519.22ZM756.109 1492.28C760.069 1492.28 763.269 1493.54 765.709 1496.06C768.149 1498.54 769.369 1502.02 769.369 1506.5V1526H760.969V1507.64C760.969 1505 760.309 1502.98 758.989 1501.58C757.669 1500.14 755.869 1499.42 753.589 1499.42C751.269 1499.42 749.429 1500.14 748.069 1501.58C746.749 1502.98 746.089 1505 746.089 1507.64V1526H737.689V1492.76H746.089V1496.9C747.209 1495.46 748.629 1494.34 750.349 1493.54C752.109 1492.7 754.029 1492.28 756.109 1492.28ZM781.077 1526.42C779.557 1526.42 778.297 1525.96 777.297 1525.04C776.337 1524.08 775.857 1522.9 775.857 1521.5C775.857 1520.1 776.337 1518.94 777.297 1518.02C778.297 1517.06 779.557 1516.58 781.077 1516.58C782.557 1516.58 783.777 1517.06 784.737 1518.02C785.697 1518.94 786.177 1520.1 786.177 1521.5C786.177 1522.9 785.697 1524.08 784.737 1525.04C783.777 1525.96 782.557 1526.42 781.077 1526.42ZM796.663 1526.42C795.143 1526.42 793.883 1525.96 792.883 1525.04C791.923 1524.08 791.443 1522.9 791.443 1521.5C791.443 1520.1 791.923 1518.94 792.883 1518.02C793.883 1517.06 795.143 1516.58 796.663 1516.58C798.143 1516.58 799.363 1517.06 800.323 1518.02C801.283 1518.94 801.763 1520.1 801.763 1521.5C801.763 1522.9 801.283 1524.08 800.323 1525.04C799.363 1525.96 798.143 1526.42 796.663 1526.42ZM812.249 1526.42C810.729 1526.42 809.469 1525.96 808.469 1525.04C807.509 1524.08 807.029 1522.9 807.029 1521.5C807.029 1520.1 807.509 1518.94 808.469 1518.02C809.469 1517.06 810.729 1516.58 812.249 1516.58C813.729 1516.58 814.949 1517.06 815.909 1518.02C816.869 1518.94 817.349 1520.1 817.349 1521.5C817.349 1522.9 816.869 1524.08 815.909 1525.04C814.949 1525.96 813.729 1526.42 812.249 1526.42ZM213.284 1587.62C214.604 1586.02 216.304 1584.72 218.384 1583.72C220.464 1582.72 222.724 1582.22 225.164 1582.22C227.644 1582.22 229.824 1582.76 231.704 1583.84C233.624 1584.88 235.104 1586.4 236.144 1588.4C237.184 1590.4 237.704 1592.74 237.704 1595.42C237.704 1596.66 237.584 1597.94 237.344 1599.26C236.744 1602.66 235.544 1605.68 233.744 1608.32C231.944 1610.92 229.764 1612.94 227.204 1614.38C224.644 1615.82 221.964 1616.54 219.164 1616.54C216.684 1616.54 214.584 1616.06 212.864 1615.1C211.144 1614.1 209.884 1612.82 209.084 1611.26L208.244 1616H199.784L207.644 1571.6H216.104L213.284 1587.62ZM228.764 1599.26C228.884 1598.46 228.944 1597.74 228.944 1597.1C228.944 1594.74 228.264 1592.9 226.904 1591.58C225.544 1590.26 223.804 1589.6 221.684 1589.6C220.164 1589.6 218.664 1590 217.184 1590.8C215.704 1591.56 214.424 1592.68 213.344 1594.16C212.264 1595.64 211.544 1597.38 211.184 1599.38C211.024 1600.42 210.944 1601.18 210.944 1601.66C210.944 1604.02 211.624 1605.86 212.984 1607.18C214.384 1608.5 216.124 1609.16 218.204 1609.16C219.764 1609.16 221.284 1608.76 222.764 1607.96C224.244 1607.16 225.524 1606.02 226.604 1604.54C227.684 1603.06 228.404 1601.3 228.764 1599.26ZM251.308 1578.8C249.988 1578.8 248.928 1578.42 248.128 1577.66C247.328 1576.9 246.928 1575.94 246.928 1574.78C246.928 1573.18 247.528 1571.82 248.728 1570.7C249.968 1569.54 251.408 1568.96 253.048 1568.96C254.328 1568.96 255.368 1569.34 256.168 1570.1C256.968 1570.86 257.368 1571.82 257.368 1572.98C257.368 1574.58 256.768 1575.96 255.568 1577.12C254.368 1578.24 252.948 1578.8 251.308 1578.8ZM254.788 1582.76L248.908 1616H240.448L246.328 1582.76H254.788ZM268.787 1605.74C268.747 1605.98 268.727 1606.3 268.727 1606.7C268.727 1607.5 268.947 1608.08 269.387 1608.44C269.867 1608.76 270.647 1608.92 271.727 1608.92H275.687L274.427 1616H269.087C263.087 1616 260.087 1613.5 260.087 1608.5C260.087 1607.54 260.167 1606.6 260.327 1605.68L263.147 1589.66H259.187L260.387 1582.76H264.407L265.847 1574.54H274.307L272.867 1582.76H280.247L279.047 1589.66H271.607L268.787 1605.74ZM284.069 1616.42C282.749 1616.42 281.689 1616.04 280.889 1615.28C280.089 1614.52 279.689 1613.56 279.689 1612.4C279.689 1610.8 280.289 1609.44 281.489 1608.32C282.729 1607.16 284.169 1606.58 285.809 1606.58C287.129 1606.58 288.169 1606.96 288.929 1607.72C289.729 1608.44 290.129 1609.4 290.129 1610.6C290.129 1612.2 289.529 1613.58 288.329 1614.74C287.129 1615.86 285.709 1616.42 284.069 1616.42ZM312.315 1571.6L304.455 1616H295.995L303.855 1571.6H312.315ZM324.154 1582.76L328.594 1605.98L341.494 1582.76H350.434L321.214 1631.72H312.274L322.354 1615.16L314.734 1582.76H324.154ZM381.602 1559.18L353.402 1626.86H345.242L373.382 1559.18H381.602ZM381.982 1606.28C386.422 1603.04 389.902 1600.4 392.422 1598.36C394.982 1596.28 397.182 1594.14 399.022 1591.94C400.902 1589.74 402.022 1587.6 402.382 1585.52C402.502 1584.92 402.562 1584.34 402.562 1583.78C402.562 1582.34 402.142 1581.22 401.302 1580.42C400.502 1579.62 399.262 1579.22 397.582 1579.22C395.622 1579.22 394.002 1579.88 392.722 1581.2C391.442 1582.48 390.542 1584.32 390.022 1586.72H381.922C382.882 1581.92 384.942 1578.28 388.102 1575.8C391.262 1573.32 394.922 1572.08 399.082 1572.08C403.042 1572.08 406.042 1573.02 408.082 1574.9C410.122 1576.74 411.142 1579.2 411.142 1582.28C411.142 1583.28 411.062 1584.18 410.902 1584.98C410.382 1587.98 409.042 1590.86 406.882 1593.62C404.722 1596.38 402.382 1598.82 399.862 1600.94C397.342 1603.02 394.082 1605.52 390.082 1608.44H407.782L406.522 1615.4H376.942L378.022 1609.16L381.982 1606.28ZM415.595 1594.1C416.795 1587.38 418.975 1582.08 422.135 1578.2C425.335 1574.32 429.835 1572.38 435.635 1572.38C444.355 1572.38 448.715 1577.1 448.715 1586.54C448.715 1588.94 448.475 1591.46 447.995 1594.1C445.435 1608.62 438.755 1615.88 427.955 1615.88C419.235 1615.88 414.875 1611.14 414.875 1601.66C414.875 1599.26 415.115 1596.74 415.595 1594.1ZM439.715 1594.1C440.195 1591.42 440.435 1589.2 440.435 1587.44C440.435 1585.16 439.955 1583.38 438.995 1582.1C438.075 1580.82 436.495 1580.18 434.255 1580.18C431.055 1580.18 428.715 1581.4 427.235 1583.84C425.755 1586.28 424.635 1589.7 423.875 1594.1C423.395 1596.78 423.155 1599 423.155 1600.76C423.155 1603.08 423.615 1604.88 424.535 1606.16C425.495 1607.44 427.095 1608.08 429.335 1608.08C431.575 1608.08 433.375 1607.46 434.735 1606.22C436.095 1604.98 437.135 1603.38 437.855 1601.42C438.575 1599.42 439.195 1596.98 439.715 1594.1ZM455.224 1606.28C459.664 1603.04 463.144 1600.4 465.664 1598.36C468.224 1596.28 470.424 1594.14 472.264 1591.94C474.144 1589.74 475.264 1587.6 475.624 1585.52C475.744 1584.92 475.804 1584.34 475.804 1583.78C475.804 1582.34 475.384 1581.22 474.544 1580.42C473.744 1579.62 472.504 1579.22 470.824 1579.22C468.864 1579.22 467.244 1579.88 465.964 1581.2C464.684 1582.48 463.784 1584.32 463.264 1586.72H455.164C456.124 1581.92 458.184 1578.28 461.344 1575.8C464.504 1573.32 468.164 1572.08 472.324 1572.08C476.284 1572.08 479.284 1573.02 481.324 1574.9C483.364 1576.74 484.384 1579.2 484.384 1582.28C484.384 1583.28 484.304 1584.18 484.144 1584.98C483.624 1587.98 482.284 1590.86 480.124 1593.62C477.964 1596.38 475.624 1598.82 473.104 1600.94C470.584 1603.02 467.324 1605.52 463.324 1608.44H481.024L479.764 1615.4H450.184L451.264 1609.16L455.224 1606.28ZM488.837 1594.1C490.037 1587.38 492.217 1582.08 495.377 1578.2C498.577 1574.32 503.077 1572.38 508.877 1572.38C517.597 1572.38 521.957 1577.1 521.957 1586.54C521.957 1588.94 521.717 1591.46 521.237 1594.1C518.677 1608.62 511.997 1615.88 501.197 1615.88C492.477 1615.88 488.117 1611.14 488.117 1601.66C488.117 1599.26 488.357 1596.74 488.837 1594.1ZM512.957 1594.1C513.437 1591.42 513.677 1589.2 513.677 1587.44C513.677 1585.16 513.197 1583.38 512.237 1582.1C511.317 1580.82 509.737 1580.18 507.497 1580.18C504.297 1580.18 501.957 1581.4 500.477 1583.84C498.997 1586.28 497.877 1589.7 497.117 1594.1C496.637 1596.78 496.397 1599 496.397 1600.76C496.397 1603.08 496.857 1604.88 497.777 1606.16C498.737 1607.44 500.337 1608.08 502.577 1608.08C504.817 1608.08 506.617 1607.46 507.977 1606.22C509.337 1604.98 510.377 1603.38 511.097 1601.42C511.817 1599.42 512.437 1596.98 512.957 1594.1ZM576.706 1582.76L561.106 1616H551.986L550.066 1592.9L539.866 1616H530.746L526.906 1582.76H535.366L536.806 1608.08L547.666 1582.76H556.546L558.346 1608.02L568.606 1582.76H576.706ZM588.631 1588.64C590.071 1586.64 591.751 1585.08 593.671 1583.96C595.591 1582.84 597.671 1582.28 599.911 1582.28L598.351 1591.1H596.131C593.651 1591.1 591.651 1591.64 590.131 1592.72C588.651 1593.8 587.571 1595.64 586.891 1598.24L583.771 1616H575.311L581.191 1582.76H589.651L588.631 1588.64ZM600.409 1599.26C601.009 1595.9 602.189 1592.92 603.949 1590.32C605.749 1587.72 607.929 1585.72 610.489 1584.32C613.049 1582.92 615.749 1582.22 618.589 1582.22C621.069 1582.22 623.149 1582.72 624.829 1583.72C626.549 1584.72 627.809 1585.98 628.609 1587.5L629.449 1582.76H637.909L632.029 1616H623.569L624.469 1611.14C623.149 1612.7 621.429 1614 619.309 1615.04C617.229 1616.04 614.949 1616.54 612.469 1616.54C610.029 1616.54 607.869 1616 605.989 1614.92C604.109 1613.8 602.649 1612.24 601.609 1610.24C600.569 1608.2 600.049 1605.84 600.049 1603.16C600.049 1601.92 600.169 1600.62 600.409 1599.26ZM626.509 1599.38C626.669 1598.34 626.749 1597.58 626.749 1597.1C626.749 1594.74 626.049 1592.9 624.649 1591.58C623.289 1590.26 621.569 1589.6 619.489 1589.6C617.929 1589.6 616.409 1589.98 614.929 1590.74C613.489 1591.5 612.229 1592.62 611.149 1594.1C610.069 1595.54 609.349 1597.26 608.989 1599.26C608.869 1600.02 608.809 1600.74 608.809 1601.42C608.809 1603.82 609.489 1605.72 610.849 1607.12C612.209 1608.48 613.929 1609.16 616.009 1609.16C617.569 1609.16 619.089 1608.78 620.569 1608.02C622.049 1607.22 623.309 1606.08 624.349 1604.6C625.429 1603.12 626.149 1601.38 626.509 1599.38ZM653.733 1587.56C655.093 1586.04 656.793 1584.78 658.833 1583.78C660.913 1582.74 663.173 1582.22 665.613 1582.22C668.093 1582.22 670.273 1582.76 672.153 1583.84C674.073 1584.88 675.553 1586.4 676.593 1588.4C677.633 1590.4 678.153 1592.74 678.153 1595.42C678.153 1596.66 678.033 1597.94 677.793 1599.26C677.193 1602.66 675.993 1605.68 674.193 1608.32C672.393 1610.92 670.213 1612.94 667.653 1614.38C665.093 1615.82 662.413 1616.54 659.613 1616.54C657.173 1616.54 655.093 1616.04 653.373 1615.04C651.693 1614.04 650.413 1612.78 649.533 1611.26L645.933 1631.84H637.473L646.113 1582.76H654.573L653.733 1587.56ZM669.213 1599.26C669.333 1598.46 669.393 1597.74 669.393 1597.1C669.393 1594.74 668.713 1592.9 667.353 1591.58C665.993 1590.26 664.253 1589.6 662.133 1589.6C660.613 1589.6 659.113 1590 657.633 1590.8C656.153 1591.56 654.873 1592.68 653.793 1594.16C652.713 1595.64 651.993 1597.38 651.633 1599.38C651.473 1600.42 651.393 1601.18 651.393 1601.66C651.393 1604.02 652.073 1605.86 653.433 1607.18C654.833 1608.5 656.573 1609.16 658.653 1609.16C660.213 1609.16 661.733 1608.76 663.213 1607.96C664.693 1607.16 665.973 1606.02 667.053 1604.54C668.133 1603.06 668.853 1601.3 669.213 1599.26ZM694.397 1587.56C695.757 1586.04 697.457 1584.78 699.497 1583.78C701.577 1582.74 703.837 1582.22 706.277 1582.22C708.757 1582.22 710.937 1582.76 712.817 1583.84C714.737 1584.88 716.217 1586.4 717.257 1588.4C718.297 1590.4 718.817 1592.74 718.817 1595.42C718.817 1596.66 718.697 1597.94 718.457 1599.26C717.857 1602.66 716.657 1605.68 714.857 1608.32C713.057 1610.92 710.877 1612.94 708.317 1614.38C705.757 1615.82 703.077 1616.54 700.277 1616.54C697.837 1616.54 695.757 1616.04 694.037 1615.04C692.357 1614.04 691.077 1612.78 690.197 1611.26L686.597 1631.84H678.137L686.777 1582.76H695.237L694.397 1587.56ZM709.877 1599.26C709.997 1598.46 710.057 1597.74 710.057 1597.1C710.057 1594.74 709.377 1592.9 708.017 1591.58C706.657 1590.26 704.917 1589.6 702.797 1589.6C701.277 1589.6 699.777 1590 698.297 1590.8C696.817 1591.56 695.537 1592.68 694.457 1594.16C693.377 1595.64 692.657 1597.38 692.297 1599.38C692.137 1600.42 692.057 1601.18 692.057 1601.66C692.057 1604.02 692.737 1605.86 694.097 1607.18C695.497 1608.5 697.237 1609.16 699.317 1609.16C700.877 1609.16 702.397 1608.76 703.877 1607.96C705.357 1607.16 706.637 1606.02 707.717 1604.54C708.797 1603.06 709.517 1601.3 709.877 1599.26ZM742.081 1582.22C746.321 1582.22 749.681 1583.4 752.161 1585.76C754.641 1588.08 755.881 1591.22 755.881 1595.18C755.881 1596.46 755.781 1597.6 755.581 1598.6C755.341 1599.8 755.081 1600.84 754.801 1601.72H730.501C730.461 1602 730.441 1602.4 730.441 1602.92C730.441 1605 731.041 1606.64 732.241 1607.84C733.481 1609 735.101 1609.58 737.101 1609.58C738.781 1609.58 740.221 1609.22 741.421 1608.5C742.661 1607.74 743.661 1606.76 744.421 1605.56H753.481C752.001 1608.76 749.701 1611.4 746.581 1613.48C743.501 1615.52 740.001 1616.54 736.081 1616.54C731.841 1616.54 728.441 1615.34 725.881 1612.94C723.321 1610.54 722.041 1607.28 722.041 1603.16C722.041 1601.96 722.161 1600.7 722.401 1599.38C723.001 1595.94 724.221 1592.92 726.061 1590.32C727.941 1587.72 730.261 1585.72 733.021 1584.32C735.781 1582.92 738.801 1582.22 742.081 1582.22ZM747.241 1596.62C747.321 1595.98 747.361 1595.52 747.361 1595.24C747.361 1593.32 746.741 1591.82 745.501 1590.74C744.261 1589.66 742.641 1589.12 740.641 1589.12C738.521 1589.12 736.621 1589.8 734.941 1591.16C733.261 1592.48 732.081 1594.3 731.401 1596.62H747.241ZM759.432 1599.26C760.032 1595.9 761.212 1592.92 762.972 1590.32C764.772 1587.72 766.952 1585.72 769.512 1584.32C772.112 1582.92 774.832 1582.22 777.672 1582.22C779.832 1582.22 781.812 1582.7 783.612 1583.66C785.412 1584.58 786.752 1585.82 787.632 1587.38L790.452 1571.6H798.912L791.052 1616H782.592L783.492 1611.08C782.172 1612.72 780.472 1614.04 778.392 1615.04C776.352 1616.04 774.092 1616.54 771.612 1616.54C769.172 1616.54 766.992 1616 765.072 1614.92C763.192 1613.8 761.712 1612.24 760.632 1610.24C759.592 1608.2 759.072 1605.84 759.072 1603.16C759.072 1601.92 759.192 1600.62 759.432 1599.26ZM785.532 1599.38C785.692 1598.34 785.772 1597.58 785.772 1597.1C785.772 1594.74 785.072 1592.9 783.672 1591.58C782.312 1590.26 780.592 1589.6 778.512 1589.6C776.952 1589.6 775.432 1589.98 773.952 1590.74C772.512 1591.5 771.252 1592.62 770.172 1594.1C769.092 1595.54 768.372 1597.26 768.012 1599.26C767.892 1600.02 767.832 1600.74 767.832 1601.42C767.832 1603.82 768.512 1605.72 769.872 1607.12C771.232 1608.48 772.952 1609.16 775.032 1609.16C776.592 1609.16 778.112 1608.78 779.592 1608.02C781.072 1607.22 782.332 1606.08 783.372 1604.6C784.452 1603.12 785.172 1601.38 785.532 1599.38Z" fill="#1C7FF3"/>
<line x1="882.273" y1="598.243" x2="853.243" y2="627.273" stroke="white" stroke-opacity="0.25" stroke-width="6" stroke-linecap="round"/>
<line x1="853.243" y1="596.727" x2="882.273" y2="625.757" stroke="white" stroke-opacity="0.25" stroke-width="6" stroke-linecap="round"/>
<line x1="497.273" y1="204.657" x2="469.657" y2="232.273" stroke="white" stroke-opacity="0.25" stroke-width="8" stroke-linecap="round"/>
<line x1="498.657" y1="203" x2="526.273" y2="230.616" stroke="white" stroke-opacity="0.25" stroke-width="8" stroke-linecap="round"/>
<line x1="555.273" y1="204.657" x2="527.657" y2="232.273" stroke="white" stroke-opacity="0.25" stroke-width="8" stroke-linecap="round"/>
<line x1="556.657" y1="203" x2="584.273" y2="230.616" stroke="white" stroke-opacity="0.25" stroke-width="8" stroke-linecap="round"/>
<line x1="613.273" y1="204.657" x2="585.657" y2="232.273" stroke="white" stroke-opacity="0.25" stroke-width="8" stroke-linecap="round"/>
<circle cx="78" cy="1731" r="24.5" stroke="white" stroke-opacity="0.25" stroke-width="7"/>
</svg>
