<svg width="35" height="36" viewBox="0 0 35 36" fill="none" xmlns="http://www.w3.org/2000/svg">
<path d="M22.6042 20.4422H21.4521L21.0438 20.0485C22.4729 18.386 23.3333 16.2277 23.3333 13.8797C23.3333 8.64433 19.0896 4.40058 13.8542 4.40058C8.61875 4.40058 4.375 8.64433 4.375 13.8797C4.375 19.1152 8.61875 23.3589 13.8542 23.3589C16.2021 23.3589 18.3604 22.4985 20.0229 21.0693L20.4167 21.4777V22.6298L27.7083 29.9068L29.8813 27.7339L22.6042 20.4422V20.4422ZM13.8542 20.4422C10.2229 20.4422 7.29167 17.511 7.29167 13.8797C7.29167 10.2485 10.2229 7.31725 13.8542 7.31725C17.4854 7.31725 20.4167 10.2485 20.4167 13.8797C20.4167 17.511 17.4854 20.4422 13.8542 20.4422Z" fill="#FC7B03"/>
</svg>
