<svg width="657" height="657" viewBox="0 0 657 657" fill="none" xmlns="http://www.w3.org/2000/svg">
<circle cx="328.357" cy="328.341" r="327.98" fill="#FC7B03"/>
<path d="M237.219 344.565C237.219 360.795 224.062 373.952 207.833 373.952C191.603 373.952 178.446 360.795 178.446 344.565C178.446 328.336 191.603 312.207 207.833 312.207C224.062 312.207 237.219 328.336 237.219 344.565Z" fill="#F6BD8E"/>
<path d="M492.635 344.565C492.635 360.795 479.479 373.952 463.249 373.952C447.019 373.952 433.863 360.795 433.863 344.565C433.863 328.336 447.019 312.207 463.249 312.207C479.479 312.207 492.635 328.336 492.635 344.565Z" fill="#F6BD8E"/>
<mask id="mask0" mask-type="alpha" maskUnits="userSpaceOnUse" x="0" y="0" width="657" height="657">
<circle cx="328.5" cy="328.5" r="327.982" fill="#FC7B03"/>
</mask>
<g mask="url(#mask0)">
<circle cx="337.643" cy="693" r="234.307" fill="#4F92FF"/>
</g>
<path d="M455.721 381.779C455.721 449.53 400.798 504.454 333.046 504.454C265.294 504.454 210.371 449.53 210.371 381.779C210.371 314.027 172.928 129.655 333.046 129.655C491.823 136.875 455.721 314.027 455.721 381.779Z" fill="#F9D2A0"/>
<path d="M209.137 267.712V323.675L188.987 325.531C188.987 325.531 183.294 259.913 194.073 213.206C204.427 168.336 222.496 149.587 272.916 124.511C294.113 113.968 348.815 114.88 377.963 118.942C407.111 123.005 417.328 114.88 417.328 114.88C417.328 114.88 421.404 129.192 420.869 136.567C420.333 143.942 416.983 153.859 416.983 153.859C416.983 153.859 459.299 176.797 473.932 221.486C488.565 266.175 480.655 325.893 480.655 325.893L459.299 318.379V277.249L404.328 232.164C404.328 232.164 389.175 284.367 318.644 299C248.113 313.633 209.137 267.712 209.137 267.712Z" fill="#252546"/>
<circle cx="276.384" cy="338.018" r="17.2754" fill="#252546"/>
<circle cx="392.566" cy="338.018" r="17.2754" fill="#252546"/>
<path d="M335.137 448.169C316.916 448.169 303.731 435.099 298.628 423.354" stroke="#F3B18D" stroke-width="12" stroke-linecap="round" stroke-linejoin="round"/>
<path d="M335.137 448.169C353.359 448.169 366.544 435.124 371.647 423.401" stroke="#F3B18D" stroke-width="12" stroke-linecap="round" stroke-linejoin="round"/>
</svg>
