<svg width="791" height="149" viewBox="0 0 791 149" fill="none" xmlns="http://www.w3.org/2000/svg">
<path d="M33.0935 19.864H0.392273V0.593681H89.4446V19.864H56.7434V102.785H33.0935V19.864Z" fill="#FC7B03"/>
<path d="M128.251 23.0758C140.417 23.0758 149.76 25.9955 156.281 31.835C162.801 37.5772 166.062 46.2878 166.062 57.9668V102.785H144.748V93.0038C140.465 100.303 132.485 103.953 120.806 103.953C114.772 103.953 109.516 102.931 105.039 100.887C100.659 98.8433 97.3017 96.0208 94.9659 92.4198C92.6301 88.8188 91.4622 84.7311 91.4622 80.1569C91.4622 72.8575 94.1873 67.1153 99.6375 62.9303C105.185 58.7454 113.701 56.6529 125.185 56.6529H143.288C143.288 51.6893 141.779 47.8936 138.762 45.2659C135.745 42.5408 131.219 41.1782 125.185 41.1782C121 41.1782 116.864 41.8595 112.776 43.222C108.786 44.4872 105.38 46.2391 102.557 48.4776L94.382 32.5649C98.6643 29.5479 103.774 27.2121 109.711 25.5575C115.745 23.903 121.925 23.0758 128.251 23.0758ZM126.499 88.6241C130.392 88.6241 133.847 87.7482 136.864 85.9964C139.881 84.1472 142.023 81.4707 143.288 77.967V69.9377H127.667C118.324 69.9377 113.652 73.0035 113.652 79.1349C113.652 82.0547 114.772 84.3905 117.01 86.1423C119.346 87.7969 122.509 88.6241 126.499 88.6241Z" fill="#FC7B03"/>
<path d="M233.097 23.0758C240.397 23.0758 247.015 24.7789 252.952 28.1853C258.986 31.4944 263.706 36.2146 267.113 42.3461C270.519 48.3802 272.222 55.4363 272.222 63.5143C272.222 71.5923 270.519 78.697 267.113 84.8285C263.706 90.8626 258.986 95.5829 252.952 98.9892C247.015 102.298 240.397 103.953 233.097 103.953C223.073 103.953 215.19 100.79 209.447 94.4636C209.447 94.4636 211.856 142.591 186.673 148.406V24.2437H208.426V33.2949C214.07 26.4821 222.294 23.0758 233.097 23.0758ZM229.156 85.2664C234.995 85.2664 239.764 83.3199 243.463 79.4269C247.258 75.4366 249.156 70.1324 249.156 63.5143C249.156 56.8962 247.258 51.6406 243.463 47.7476C239.764 43.7573 234.995 41.7621 229.156 41.7621C223.316 41.7621 218.499 43.7573 214.703 47.7476C211.005 51.6406 209.156 56.8962 209.156 63.5143C209.156 70.1324 211.005 75.4366 214.703 79.4269C218.499 83.3199 223.316 85.2664 229.156 85.2664Z" fill="#FC7B03"/>
<path d="M364.403 63.8063C364.403 64.0982 364.257 66.1421 363.965 69.9377H304.548C305.619 74.804 308.149 78.6483 312.139 81.4707C316.13 84.2932 321.093 85.7044 327.03 85.7044C331.118 85.7044 334.719 85.1204 337.833 83.9525C341.045 82.6873 344.013 80.7408 346.738 78.113L358.855 91.2519C351.459 99.7192 340.656 103.953 326.446 103.953C317.59 103.953 309.755 102.25 302.942 98.8433C296.129 95.3396 290.874 90.522 287.176 84.3905C283.477 78.259 281.628 71.3003 281.628 63.5143C281.628 55.8256 283.429 48.9155 287.03 42.7841C290.728 36.5553 295.74 31.7377 302.066 28.3313C308.49 24.8276 315.643 23.0758 323.526 23.0758C331.215 23.0758 338.174 24.7303 344.403 28.0393C350.631 31.3484 355.498 36.1173 359.001 42.3461C362.602 48.4776 364.403 55.631 364.403 63.8063ZM323.672 40.3023C318.514 40.3023 314.183 41.7621 310.68 44.6819C307.176 47.6016 305.035 51.592 304.256 56.6529H342.943C342.164 51.6893 340.023 47.7476 336.519 44.8279C333.016 41.8108 328.733 40.3023 323.672 40.3023Z" fill="#FC7B03"/>
<path d="M401.317 34.6088C404.042 30.8131 407.692 27.942 412.266 25.9955C416.938 24.049 422.291 23.0758 428.325 23.0758V41.0135C426.792 41.0135 424.102 41.3758 422.914 41.628C416.344 43.0243 411.585 45.6551 407.887 49.3535C404.188 52.9545 402.339 58.4047 402.339 65.7041V102.785H379.565V24.2437H401.317V34.6088Z" fill="#FC7B03"/>
<path d="M474.749 63.7775C482.048 63.7775 488.666 65.4807 494.603 68.887C500.637 72.1961 505.357 76.9163 508.764 83.0478C512.17 89.0819 513.873 96.138 513.873 104.216C513.873 112.294 512.17 119.399 508.764 125.53C505.357 131.564 500.637 136.285 494.603 139.691C488.666 143 482.048 144.655 474.749 144.655C463.946 144.655 455.722 141.248 450.077 134.435V143.487H428.325C428.325 98.2912 428.325 83.8727 428.325 40.1654C428.325 36.5887 427.676 26.8602 421.141 23.6016C425.305 22.9048 428.319 23.0442 428.319 23.0442C428.319 23.0442 437.288 22.7064 444.237 31.4148C447.173 35.0939 448.627 38.3054 449.611 44.7894C450.861 53.0265 451.099 73.2667 451.099 73.2667C456.841 66.9406 464.724 63.7775 474.749 63.7775ZM470.807 125.968C476.647 125.968 481.416 124.022 485.114 120.129C488.91 116.138 490.807 110.834 490.807 104.216C490.807 97.5979 488.91 92.3423 485.114 88.4493C481.416 84.459 476.647 82.4639 470.807 82.4639C464.968 82.4639 460.15 84.459 456.354 88.4493C452.656 92.3423 450.807 97.5979 450.807 104.216C450.807 110.834 452.656 116.138 456.354 120.129C460.15 124.022 464.968 125.968 470.807 125.968Z" fill="#313131"/>
<path d="M559.515 63.7775C571.681 63.7775 581.024 66.6972 587.545 72.5367C594.066 78.2789 597.326 86.9895 597.326 98.6685V143.487H576.012V133.705C571.729 141.005 563.749 144.655 552.07 144.655C546.036 144.655 540.78 143.633 536.303 141.589C531.923 139.545 528.566 136.723 526.23 133.122C523.894 129.52 522.726 125.433 522.726 120.859C522.726 113.559 525.451 107.817 530.901 103.632C536.449 99.4471 544.965 97.3546 556.449 97.3546H574.552C574.552 92.391 573.043 88.5953 570.026 85.9676C567.009 83.2425 562.484 81.8799 556.449 81.8799C552.264 81.8799 548.128 82.5612 544.041 83.9237C540.05 85.1889 536.644 86.9408 533.821 89.1793L525.646 73.2667C529.928 70.2496 535.038 67.9138 540.975 66.2593C547.009 64.6048 553.189 63.7775 559.515 63.7775ZM557.763 129.326C561.656 129.326 565.111 128.45 568.128 126.698C571.145 124.849 573.287 122.172 574.552 118.669V110.639H558.931C549.588 110.639 544.916 113.705 544.916 119.837C544.916 122.756 546.036 125.092 548.274 126.844C550.61 128.499 553.773 129.326 557.763 129.326Z" fill="#313131"/>
<path d="M656.75 144.655C648.38 144.655 640.837 142.951 634.122 139.545C627.503 136.041 622.297 131.224 618.501 125.092C614.803 118.961 612.953 112.002 612.953 104.216C612.953 96.43 614.803 89.4713 618.501 83.3398C622.297 77.2083 627.503 72.4394 634.122 69.033C640.837 65.5293 648.38 63.7775 656.75 63.7775C665.022 63.7775 672.224 65.5293 678.356 69.033C684.585 72.4394 689.11 77.3543 691.933 83.7777L674.268 93.2669C670.181 86.0649 664.292 82.4639 656.604 82.4639C650.667 82.4639 645.752 84.4104 641.859 88.3034C637.966 92.1964 636.019 97.5006 636.019 104.216C636.019 110.931 637.966 116.236 641.859 120.129C645.752 124.022 650.667 125.968 656.604 125.968C664.39 125.968 670.278 122.367 674.268 115.165L691.933 124.8C689.11 131.029 684.585 135.895 678.356 139.399C672.224 142.903 665.022 144.655 656.75 144.655Z" fill="#313131"/>
<path d="M738.198 112.683L727.249 123.486V143.487H704.475V35.1639H727.249V96.4786L760.534 64.9454H787.688L754.987 98.2305L790.608 143.487H763.016L738.198 112.683Z" fill="#313131"/>
</svg>
