<svg width="1011" height="319" viewBox="0 0 1011 319" fill="none" xmlns="http://www.w3.org/2000/svg">
<rect width="1011" height="319" rx="159.5" fill="#F5F5F5"/>
<path d="M142.701 104.27H110V85H199.052V104.27H166.351V187.191H142.701V104.27Z" fill="#FC7B03"/>
<path d="M237.859 107.482C250.024 107.482 259.368 110.402 265.888 116.241C272.409 121.983 275.67 130.694 275.67 142.373V187.191H254.355V177.41C250.073 184.709 242.092 188.359 230.413 188.359C224.379 188.359 219.124 187.337 214.647 185.293C210.267 183.25 206.909 180.427 204.574 176.826C202.238 173.225 201.07 169.137 201.07 164.563C201.07 157.264 203.795 151.522 209.245 147.337C214.793 143.152 223.309 141.059 234.793 141.059H252.896C252.896 136.096 251.387 132.3 248.37 129.672C245.353 126.947 240.827 125.585 234.793 125.585C230.608 125.585 226.472 126.266 222.384 127.628C218.394 128.894 214.987 130.645 212.165 132.884L203.99 116.971C208.272 113.954 213.382 111.618 219.318 109.964C225.353 108.309 231.533 107.482 237.859 107.482ZM236.107 173.03C240 173.03 243.455 172.155 246.472 170.403C249.489 168.553 251.63 165.877 252.896 162.373V154.344H237.275C227.932 154.344 223.26 157.41 223.26 163.541C223.26 166.461 224.379 168.797 226.618 170.549C228.954 172.203 232.117 173.03 236.107 173.03Z" fill="#FC7B03"/>
<path d="M342.705 107.482C350.005 107.482 356.623 109.185 362.559 112.592C368.594 115.901 373.314 120.621 376.72 126.752C380.127 132.787 381.83 139.843 381.83 147.921C381.83 155.999 380.127 163.103 376.72 169.235C373.314 175.269 368.594 179.989 362.559 183.396C356.623 186.705 350.005 188.359 342.705 188.359C332.681 188.359 324.797 185.196 319.055 178.87C319.055 178.87 321.463 226.997 296.281 232.812V108.65H318.033V117.701C323.678 110.888 331.902 107.482 342.705 107.482ZM338.764 169.673C344.603 169.673 349.372 167.726 353.07 163.833C356.866 159.843 358.764 154.539 358.764 147.921C358.764 141.302 356.866 136.047 353.07 132.154C349.372 128.164 344.603 126.168 338.764 126.168C332.924 126.168 328.106 128.164 324.311 132.154C320.612 136.047 318.763 141.302 318.763 147.921C318.763 154.539 320.612 159.843 324.311 163.833C328.106 167.726 332.924 169.673 338.764 169.673Z" fill="#FC7B03"/>
<path d="M474.011 148.213C474.011 148.505 473.865 150.548 473.573 154.344H414.156C415.226 159.21 417.757 163.055 421.747 165.877C425.737 168.699 430.701 170.111 436.638 170.111C440.725 170.111 444.327 169.527 447.441 168.359C450.653 167.094 453.621 165.147 456.346 162.519L468.463 175.658C461.066 184.125 450.263 188.359 436.054 188.359C427.197 188.359 419.363 186.656 412.55 183.25C405.737 179.746 400.482 174.928 396.783 168.797C393.085 162.665 391.236 155.707 391.236 147.921C391.236 140.232 393.036 133.322 396.637 127.19C400.336 120.962 405.348 116.144 411.674 112.738C418.097 109.234 425.251 107.482 433.134 107.482C440.823 107.482 447.782 109.137 454.01 112.446C460.239 115.755 465.105 120.524 468.609 126.752C472.21 132.884 474.011 140.037 474.011 148.213ZM433.28 124.709C428.122 124.709 423.791 126.168 420.287 129.088C416.784 132.008 414.642 135.998 413.864 141.059H452.55C451.772 136.096 449.631 132.154 446.127 129.234C442.623 126.217 438.341 124.709 433.28 124.709Z" fill="#FC7B03"/>
<path d="M510.925 119.015C513.65 115.219 517.3 112.348 521.874 110.402C526.546 108.455 531.898 107.482 537.933 107.482V125.42C536.399 125.42 533.709 125.782 532.522 126.034C525.952 127.431 521.193 130.061 517.494 133.76C513.796 137.361 511.947 142.811 511.947 150.11V187.191H489.173V108.65H510.925V119.015Z" fill="#FC7B03"/>
<path d="M584.357 148.184C591.656 148.184 598.274 149.887 604.211 153.293C610.245 156.602 614.965 161.323 618.372 167.454C621.778 173.488 623.481 180.544 623.481 188.622C623.481 196.7 621.778 203.805 618.372 209.937C614.965 215.971 610.245 220.691 604.211 224.097C598.274 227.406 591.656 229.061 584.357 229.061C573.554 229.061 565.33 225.655 559.685 218.842V227.893H537.933C537.933 182.698 537.933 168.279 537.933 124.572C537.933 120.995 537.284 111.267 530.749 108.008C534.913 107.311 537.927 107.451 537.927 107.451C537.927 107.451 546.895 107.113 553.845 115.821C556.781 119.5 558.235 122.712 559.219 129.196C560.469 137.433 560.707 157.673 560.707 157.673C566.449 151.347 574.332 148.184 584.357 148.184ZM580.415 210.374C586.254 210.374 591.023 208.428 594.722 204.535C598.517 200.545 600.415 195.24 600.415 188.622C600.415 182.004 598.517 176.749 594.722 172.856C591.023 168.865 586.254 166.87 580.415 166.87C574.575 166.87 569.758 168.865 565.962 172.856C562.264 176.749 560.415 182.004 560.415 188.622C560.415 195.24 562.264 200.545 565.962 204.535C569.758 208.428 574.575 210.374 580.415 210.374Z" fill="#313131"/>
<path d="M669.123 148.184C681.289 148.184 690.632 151.104 697.153 156.943C703.673 162.685 706.934 171.396 706.934 183.075V227.893H685.619V218.112C681.337 225.411 673.357 229.061 661.678 229.061C655.643 229.061 650.388 228.039 645.911 225.995C641.531 223.951 638.173 221.129 635.838 217.528C633.502 213.927 632.334 209.839 632.334 205.265C632.334 197.966 635.059 192.223 640.509 188.038C646.057 183.853 654.573 181.761 666.057 181.761H684.16C684.16 176.797 682.651 173.002 679.634 170.374C676.617 167.649 672.091 166.286 666.057 166.286C661.872 166.286 657.736 166.968 653.648 168.33C649.658 169.595 646.251 171.347 643.429 173.586L635.254 157.673C639.536 154.656 644.646 152.32 650.583 150.666C656.617 149.011 662.797 148.184 669.123 148.184ZM667.371 213.732C671.264 213.732 674.719 212.856 677.736 211.104C680.753 209.255 682.894 206.579 684.16 203.075V195.046H668.539C659.196 195.046 654.524 198.112 654.524 204.243C654.524 207.163 655.643 209.499 657.882 211.25C660.218 212.905 663.381 213.732 667.371 213.732Z" fill="#313131"/>
<path d="M766.357 229.061C757.987 229.061 750.445 227.358 743.729 223.951C737.111 220.448 731.904 215.63 728.109 209.499C724.41 203.367 722.561 196.408 722.561 188.622C722.561 180.836 724.41 173.878 728.109 167.746C731.904 161.615 737.111 156.846 743.729 153.439C750.445 149.936 757.987 148.184 766.357 148.184C774.63 148.184 781.832 149.936 787.964 153.439C794.192 156.846 798.718 161.761 801.54 168.184L783.876 177.673C779.788 170.471 773.9 166.87 766.211 166.87C760.275 166.87 755.36 168.817 751.467 172.71C747.574 176.603 745.627 181.907 745.627 188.622C745.627 195.338 747.574 200.642 751.467 204.535C755.36 208.428 760.275 210.374 766.211 210.374C773.997 210.374 779.886 206.773 783.876 199.571L801.54 209.207C798.718 215.435 794.192 220.302 787.964 223.805C781.832 227.309 774.63 229.061 766.357 229.061Z" fill="#313131"/>
<path d="M847.806 197.09L836.857 207.893V227.893H814.083V119.57H836.857V180.885L870.142 149.352H897.296L864.594 182.637L900.215 227.893H872.624L847.806 197.09Z" fill="#313131"/>
</svg>
